<?xml version="1.0" encoding="utf-8" standalone="no"?>
<!DOCTYPE svg PUBLIC "-//W3C//DTD SVG 1.1//EN"
  "http://www.w3.org/Graphics/SVG/1.1/DTD/svg11.dtd">
<svg xmlns:xlink="http://www.w3.org/1999/xlink" width="352.8pt" height="316.8pt" viewBox="0 0 352.8 316.8" xmlns="http://www.w3.org/2000/svg" version="1.1">
 <metadata>
  <rdf:RDF xmlns:dc="http://purl.org/dc/elements/1.1/" xmlns:cc="http://creativecommons.org/ns#" xmlns:rdf="http://www.w3.org/1999/02/22-rdf-syntax-ns#">
   <cc:Work>
    <dc:type rdf:resource="http://purl.org/dc/dcmitype/StillImage"/>
    <dc:date>2026-06-20T15:51:33.569693</dc:date>
    <dc:format>image/svg+xml</dc:format>
    <dc:creator>
     <cc:Agent>
      <dc:title>Matplotlib v3.10.8, https://matplotlib.org/</dc:title>
     </cc:Agent>
    </dc:creator>
   </cc:Work>
  </rdf:RDF>
 </metadata>
 <defs>
  <style type="text/css">*{stroke-linejoin: round; stroke-linecap: butt}</style>
 </defs>
 <g id="figure_1">
  <g id="patch_1">
   <path d="M 0 316.8 
L 352.8 316.8 
L 352.8 0 
L 0 0 
z
" style="fill: #ffffff"/>
  </g>
  <g id="axes_1">
   <g id="patch_2">
    <path d="M 11.2 305.6 
L 345.6 305.6 
L 345.6 7.2 
L 11.2 7.2 
z
" style="fill: #ffffff"/>
   </g>
   <g id="FillBetweenPolyCollection_1">
    <defs>
     <path id="mc209875b84" d="M 11.2 -11.2 
L 11.2 -193.555939 
L 11.87014 -203.66223 
L 12.540281 -213.566236 
L 13.210421 -223.191257 
L 13.880561 -232.461889 
L 14.550701 -241.305236 
L 15.220842 -249.652102 
L 15.890982 -257.438106 
L 16.561122 -264.604719 
L 17.231263 -271.10018 
L 17.901403 -276.880277 
L 18.571543 -281.90897 
L 19.241683 -286.158847 
L 19.911824 -289.611402 
L 20.581964 -292.257131 
L 21.252104 -294.095452 
L 21.922244 -295.134453 
L 22.592385 -295.390476 
L 23.262525 -294.887564 
L 23.932665 -293.656776 
L 24.602806 -291.735403 
L 25.272946 -289.166102 
L 25.943086 -285.995973 
L 26.613226 -282.275612 
L 27.283367 -278.058146 
L 27.953507 -273.398297 
L 28.623647 -268.35147 
L 29.293788 -262.972907 
L 29.963928 -257.316899 
L 30.634068 -251.436095 
L 31.304208 -245.380892 
L 31.974349 -239.198922 
L 32.644489 -232.934649 
L 33.314629 -226.629053 
L 33.98477 -220.319423 
L 34.65491 -214.039233 
L 35.32505 -207.818106 
L 35.99519 -201.681857 
L 36.665331 -195.652596 
L 37.335471 -189.748896 
L 38.005611 -183.985996 
L 38.675752 -178.376049 
L 39.345892 -172.928388 
L 40.016032 -167.649809 
L 40.686172 -162.544862 
L 41.356313 -157.616136 
L 42.026453 -152.864544 
L 42.696593 -148.289586 
L 43.366733 -143.889597 
L 44.036874 -139.661977 
L 44.707014 -135.603395 
L 45.377154 -131.709968 
L 46.047295 -127.977418 
L 46.717435 -124.401206 
L 47.387575 -120.976638 
L 48.057715 -117.698959 
L 48.727856 -114.563419 
L 49.397996 -111.565326 
L 50.068136 -108.700089 
L 50.738277 -105.96324 
L 51.408417 -103.35045 
L 52.078557 -100.857538 
L 52.748697 -98.480474 
L 53.418838 -96.215372 
L 54.088978 -94.058484 
L 54.759118 -92.006186 
L 55.429259 -90.054973 
L 56.099399 -88.201436 
L 56.769539 -86.442253 
L 57.439679 -84.774168 
L 58.10982 -83.19398 
L 58.77996 -81.69852 
L 59.4501 -80.28464 
L 60.12024 -78.94919 
L 60.790381 -77.689001 
L 61.460521 -76.500875 
L 62.130661 -75.381561 
L 62.800802 -74.327744 
L 63.470942 -73.336032 
L 64.141082 -72.402945 
L 64.811222 -71.524906 
L 65.481363 -70.698238 
L 66.151503 -69.919161 
L 66.821643 -69.183795 
L 67.491784 -68.48817 
L 68.161924 -67.828235 
L 68.832064 -67.199877 
L 69.502204 -66.598943 
L 70.172345 -66.021265 
L 70.842485 -65.462695 
L 71.512625 -64.919136 
L 72.182766 -64.386581 
L 72.852906 -63.86116 
L 73.523046 -63.339172 
L 74.193186 -62.817141 
L 74.863327 -62.291851 
L 75.533467 -61.760392 
L 76.203607 -61.220197 
L 76.873747 -60.669083 
L 77.543888 -60.105277 
L 78.214028 -59.527448 
L 78.884168 -58.93472 
L 79.554309 -58.326689 
L 80.224449 -57.703425 
L 80.894589 -57.065468 
L 81.564729 -56.413814 
L 82.23487 -55.749897 
L 82.90501 -55.075555 
L 83.57515 -54.392997 
L 84.245291 -53.704752 
L 84.915431 -53.013624 
L 85.585571 -52.322631 
L 86.255711 -51.634947 
L 86.925852 -50.953838 
L 87.595992 -50.282595 
L 88.266132 -49.624476 
L 88.936273 -48.982633 
L 89.606413 -48.360064 
L 90.276553 -47.759546 
L 90.946693 -47.183595 
L 91.616834 -46.634416 
L 92.286974 -46.11387 
L 92.957114 -45.623446 
L 93.627255 -45.164242 
L 94.297395 -44.736953 
L 94.967535 -44.341872 
L 95.637675 -43.978894 
L 96.307816 -43.647532 
L 96.977956 -43.346936 
L 97.648096 -43.075927 
L 98.318236 -42.833024 
L 98.988377 -42.616487 
L 99.658517 -42.424354 
L 100.328657 -42.25449 
L 100.998798 -42.104625 
L 101.668938 -41.972404 
L 102.339078 -41.855425 
L 103.009218 -41.751283 
L 103.679359 -41.657609 
L 104.349499 -41.572097 
L 105.019639 -41.492542 
L 105.68978 -41.416857 
L 106.35992 -41.343098 
L 107.03006 -41.269473 
L 107.7002 -41.194354 
L 108.370341 -41.116279 
L 109.040481 -41.033947 
L 109.710621 -40.94622 
L 110.380762 -40.852104 
L 111.050902 -40.750743 
L 111.721042 -40.641398 
L 112.391182 -40.523435 
L 113.061323 -40.396303 
L 113.731463 -40.25952 
L 114.401603 -40.112654 
L 115.071743 -39.955309 
L 115.741884 -39.787114 
L 116.412024 -39.60771 
L 117.082164 -39.41675 
L 117.752305 -39.213894 
L 118.422445 -38.998813 
L 119.092585 -38.771195 
L 119.762725 -38.530753 
L 120.432866 -38.277243 
L 121.103006 -38.01048 
L 121.773146 -37.730352 
L 122.443287 -37.436846 
L 123.113427 -37.130063 
L 123.783567 -36.81024 
L 124.453707 -36.477766 
L 125.123848 -36.133196 
L 125.793988 -35.777263 
L 126.464128 -35.410883 
L 127.134269 -35.035157 
L 127.804409 -34.651361 
L 128.474549 -34.260944 
L 129.144689 -33.8655 
L 129.81483 -33.466755 
L 130.48497 -33.066532 
L 131.15511 -32.666724 
L 131.825251 -32.269254 
L 132.495391 -31.876036 
L 133.165531 -31.48894 
L 133.835671 -31.109746 
L 134.505812 -30.74011 
L 135.175952 -30.381525 
L 135.846092 -30.035291 
L 136.516232 -29.702483 
L 137.186373 -29.383937 
L 137.856513 -29.080228 
L 138.526653 -28.791665 
L 139.196794 -28.518291 
L 139.866934 -28.259888 
L 140.537074 -28.01599 
L 141.207214 -27.785907 
L 141.877355 -27.568746 
L 142.547495 -27.363446 
L 143.217635 -27.168812 
L 143.887776 -26.98355 
L 144.557916 -26.806312 
L 145.228056 -26.635728 
L 145.898196 -26.470452 
L 146.568337 -26.309191 
L 147.238477 -26.150743 
L 147.908617 -25.994024 
L 148.578758 -25.838088 
L 149.248898 -25.682151 
L 149.919038 -25.525595 
L 150.589178 -25.367982 
L 151.259319 -25.209044 
L 151.929459 -25.048684 
L 152.599599 -24.886958 
L 153.269739 -24.724061 
L 153.93988 -24.560306 
L 154.61002 -24.396099 
L 155.28016 -24.231912 
L 155.950301 -24.068258 
L 156.620441 -23.905662 
L 157.290581 -23.744635 
L 157.960721 -23.585651 
L 158.630862 -23.429126 
L 159.301002 -23.275398 
L 159.971142 -23.124716 
L 160.641283 -22.97723 
L 161.311423 -22.832986 
L 161.981563 -22.691929 
L 162.651703 -22.553904 
L 163.321844 -22.418668 
L 163.991984 -22.285904 
L 164.662124 -22.155231 
L 165.332265 -22.02623 
L 166.002405 -21.898461 
L 166.672545 -21.77148 
L 167.342685 -21.644864 
L 168.012826 -21.51823 
L 168.682966 -21.39125 
L 169.353106 -21.26367 
L 170.023246 -21.135319 
L 170.693387 -21.006123 
L 171.363527 -20.876103 
L 172.033667 -20.745386 
L 172.703808 -20.614195 
L 173.373948 -20.482845 
L 174.044088 -20.351736 
L 174.714228 -20.22134 
L 175.384369 -20.092183 
L 176.054509 -19.964832 
L 176.724649 -19.839873 
L 177.39479 -19.717895 
L 178.06493 -19.599471 
L 178.73507 -19.485138 
L 179.40521 -19.375379 
L 180.075351 -19.270612 
L 180.745491 -19.171172 
L 181.415631 -19.077306 
L 182.085772 -18.98916 
L 182.755912 -18.906778 
L 183.426052 -18.830099 
L 184.096192 -18.758959 
L 184.766333 -18.693096 
L 185.436473 -18.632157 
L 186.106613 -18.575706 
L 186.776754 -18.523236 
L 187.446894 -18.474182 
L 188.117034 -18.427931 
L 188.787174 -18.383842 
L 189.457315 -18.341254 
L 190.127455 -18.299502 
L 190.797595 -18.257932 
L 191.467735 -18.215907 
L 192.137876 -18.172822 
L 192.808016 -18.128113 
L 193.478156 -18.081259 
L 194.148297 -18.031792 
L 194.818437 -17.979303 
L 195.488577 -17.923435 
L 196.158717 -17.863895 
L 196.828858 -17.800444 
L 197.498998 -17.732901 
L 198.169138 -17.661138 
L 198.839279 -17.585079 
L 199.509419 -17.504693 
L 200.179559 -17.419993 
L 200.849699 -17.331031 
L 201.51984 -17.237894 
L 202.18998 -17.140701 
L 202.86012 -17.039599 
L 203.530261 -16.93476 
L 204.200401 -16.826378 
L 204.870541 -16.714667 
L 205.540681 -16.59986 
L 206.210822 -16.482205 
L 206.880962 -16.361967 
L 207.551102 -16.239422 
L 208.221242 -16.11486 
L 208.891383 -15.988583 
L 209.561523 -15.860902 
L 210.231663 -15.732139 
L 210.901804 -15.602622 
L 211.571944 -15.472687 
L 212.242084 -15.342677 
L 212.912224 -15.212938 
L 213.582365 -15.083817 
L 214.252505 -14.955664 
L 214.922645 -14.828826 
L 215.592786 -14.703648 
L 216.262926 -14.580467 
L 216.933066 -14.459614 
L 217.603206 -14.341408 
L 218.273347 -14.226156 
L 218.943487 -14.114146 
L 219.613627 -14.005652 
L 220.283768 -13.900921 
L 220.953908 -13.800182 
L 221.624048 -13.703633 
L 222.294188 -13.611445 
L 222.964329 -13.523758 
L 223.634469 -13.44068 
L 224.304609 -13.362282 
L 224.974749 -13.288604 
L 225.64489 -13.219646 
L 226.31503 -13.155372 
L 226.98517 -13.095711 
L 227.655311 -13.040555 
L 228.325451 -12.989761 
L 228.995591 -12.943153 
L 229.665731 -12.900524 
L 230.335872 -12.861639 
L 231.006012 -12.826234 
L 231.676152 -12.794027 
L 232.346293 -12.764714 
L 233.016433 -12.737978 
L 233.686573 -12.713492 
L 234.356713 -12.690921 
L 235.026854 -12.669931 
L 235.696994 -12.650191 
L 236.367134 -12.631377 
L 237.037275 -12.61318 
L 237.707415 -12.595304 
L 238.377555 -12.577478 
L 239.047695 -12.559452 
L 239.717836 -12.541005 
L 240.387976 -12.521943 
L 241.058116 -12.502108 
L 241.728257 -12.481369 
L 242.398397 -12.459633 
L 243.068537 -12.436836 
L 243.738677 -12.412947 
L 244.408818 -12.387963 
L 245.078958 -12.36191 
L 245.749098 -12.334839 
L 246.419238 -12.306818 
L 247.089379 -12.277938 
L 247.759519 -12.248298 
L 248.429659 -12.21801 
L 249.0998 -12.18719 
L 249.76994 -12.155956 
L 250.44008 -12.124426 
L 251.11022 -12.092711 
L 251.780361 -12.060917 
L 252.450501 -12.029142 
L 253.120641 -11.997472 
L 253.790782 -11.965984 
L 254.460922 -11.934743 
L 255.131062 -11.903805 
L 255.801202 -11.873216 
L 256.471343 -11.843012 
L 257.141483 -11.813225 
L 257.811623 -11.783879 
L 258.481764 -11.754998 
L 259.151904 -11.7266 
L 259.822044 -11.698706 
L 260.492184 -11.671336 
L 261.162325 -11.644514 
L 261.832465 -11.618265 
L 262.502605 -11.592619 
L 263.172745 -11.567608 
L 263.842886 -11.543267 
L 264.513026 -11.519635 
L 265.183166 -11.49675 
L 265.853307 -11.474655 
L 266.523447 -11.453387 
L 267.193587 -11.432987 
L 267.863727 -11.41349 
L 268.533868 -11.394926 
L 269.204008 -11.377323 
L 269.874148 -11.360701 
L 270.544289 -11.345074 
L 271.214429 -11.330448 
L 271.884569 -11.316824 
L 272.554709 -11.304192 
L 273.22485 -11.292536 
L 273.89499 -11.281836 
L 274.56513 -11.272061 
L 275.235271 -11.263176 
L 275.905411 -11.255142 
L 276.575551 -11.247915 
L 277.245691 -11.241448 
L 277.915832 -11.23569 
L 278.585972 -11.230592 
L 279.256112 -11.226101 
L 279.926253 -11.222166 
L 280.596393 -11.218736 
L 281.266533 -11.215762 
L 281.936673 -11.213198 
L 282.606814 -11.210999 
L 283.276954 -11.209122 
L 283.947094 -11.20753 
L 284.617234 -11.206186 
L 285.287375 -11.205057 
L 285.957515 -11.204114 
L 286.627655 -11.203331 
L 287.297796 -11.202684 
L 287.967936 -11.202152 
L 288.638076 -11.201717 
L 289.308216 -11.201364 
L 289.978357 -11.201078 
L 290.648497 -11.200847 
L 291.318637 -11.200663 
L 291.988778 -11.200516 
L 292.658918 -11.2004 
L 293.329058 -11.200309 
L 293.999198 -11.200237 
L 294.669339 -11.200181 
L 295.339479 -11.200137 
L 296.009619 -11.200104 
L 296.67976 -11.200078 
L 297.3499 -11.200058 
L 298.02004 -11.200044 
L 298.69018 -11.200032 
L 299.360321 -11.200024 
L 300.030461 -11.200017 
L 300.700601 -11.200013 
L 301.370741 -11.200009 
L 302.040882 -11.200007 
L 302.711022 -11.200005 
L 303.381162 -11.200003 
L 304.051303 -11.200002 
L 304.721443 -11.200002 
L 305.391583 -11.200001 
L 306.061723 -11.200001 
L 306.731864 -11.200001 
L 307.402004 -11.2 
L 308.072144 -11.2 
L 308.742285 -11.2 
L 309.412425 -11.2 
L 310.082565 -11.2 
L 310.752705 -11.2 
L 311.422846 -11.2 
L 312.092986 -11.2 
L 312.763126 -11.2 
L 313.433267 -11.2 
L 314.103407 -11.2 
L 314.773547 -11.2 
L 315.443687 -11.2 
L 316.113828 -11.2 
L 316.783968 -11.2 
L 317.454108 -11.2 
L 318.124248 -11.2 
L 318.794389 -11.2 
L 319.464529 -11.2 
L 320.134669 -11.2 
L 320.80481 -11.2 
L 321.47495 -11.2 
L 322.14509 -11.2 
L 322.81523 -11.2 
L 323.485371 -11.2 
L 324.155511 -11.2 
L 324.825651 -11.2 
L 325.495792 -11.2 
L 326.165932 -11.2 
L 326.836072 -11.2 
L 327.506212 -11.2 
L 328.176353 -11.2 
L 328.846493 -11.2 
L 329.516633 -11.2 
L 330.186774 -11.2 
L 330.856914 -11.2 
L 331.527054 -11.2 
L 332.197194 -11.2 
L 332.867335 -11.2 
L 333.537475 -11.2 
L 334.207615 -11.2 
L 334.877756 -11.2 
L 335.547896 -11.2 
L 336.218036 -11.2 
L 336.888176 -11.2 
L 337.558317 -11.2 
L 338.228457 -11.2 
L 338.898597 -11.2 
L 339.568737 -11.2 
L 340.238878 -11.2 
L 340.909018 -11.2 
L 341.579158 -11.2 
L 342.249299 -11.2 
L 342.919439 -11.2 
L 343.589579 -11.2 
L 344.259719 -11.2 
L 344.92986 -11.2 
L 345.6 -11.2 
L 345.6 -11.2 
L 345.6 -11.2 
L 344.92986 -11.2 
L 344.259719 -11.2 
L 343.589579 -11.2 
L 342.919439 -11.2 
L 342.249299 -11.2 
L 341.579158 -11.2 
L 340.909018 -11.2 
L 340.238878 -11.2 
L 339.568737 -11.2 
L 338.898597 -11.2 
L 338.228457 -11.2 
L 337.558317 -11.2 
L 336.888176 -11.2 
L 336.218036 -11.2 
L 335.547896 -11.2 
L 334.877756 -11.2 
L 334.207615 -11.2 
L 333.537475 -11.2 
L 332.867335 -11.2 
L 332.197194 -11.2 
L 331.527054 -11.2 
L 330.856914 -11.2 
L 330.186774 -11.2 
L 329.516633 -11.2 
L 328.846493 -11.2 
L 328.176353 -11.2 
L 327.506212 -11.2 
L 326.836072 -11.2 
L 326.165932 -11.2 
L 325.495792 -11.2 
L 324.825651 -11.2 
L 324.155511 -11.2 
L 323.485371 -11.2 
L 322.81523 -11.2 
L 322.14509 -11.2 
L 321.47495 -11.2 
L 320.80481 -11.2 
L 320.134669 -11.2 
L 319.464529 -11.2 
L 318.794389 -11.2 
L 318.124248 -11.2 
L 317.454108 -11.2 
L 316.783968 -11.2 
L 316.113828 -11.2 
L 315.443687 -11.2 
L 314.773547 -11.2 
L 314.103407 -11.2 
L 313.433267 -11.2 
L 312.763126 -11.2 
L 312.092986 -11.2 
L 311.422846 -11.2 
L 310.752705 -11.2 
L 310.082565 -11.2 
L 309.412425 -11.2 
L 308.742285 -11.2 
L 308.072144 -11.2 
L 307.402004 -11.2 
L 306.731864 -11.2 
L 306.061723 -11.2 
L 305.391583 -11.2 
L 304.721443 -11.2 
L 304.051303 -11.2 
L 303.381162 -11.2 
L 302.711022 -11.2 
L 302.040882 -11.2 
L 301.370741 -11.2 
L 300.700601 -11.2 
L 300.030461 -11.2 
L 299.360321 -11.2 
L 298.69018 -11.2 
L 298.02004 -11.2 
L 297.3499 -11.2 
L 296.67976 -11.2 
L 296.009619 -11.2 
L 295.339479 -11.2 
L 294.669339 -11.2 
L 293.999198 -11.2 
L 293.329058 -11.2 
L 292.658918 -11.2 
L 291.988778 -11.2 
L 291.318637 -11.2 
L 290.648497 -11.2 
L 289.978357 -11.2 
L 289.308216 -11.2 
L 288.638076 -11.2 
L 287.967936 -11.2 
L 287.297796 -11.2 
L 286.627655 -11.2 
L 285.957515 -11.2 
L 285.287375 -11.2 
L 284.617234 -11.2 
L 283.947094 -11.2 
L 283.276954 -11.2 
L 282.606814 -11.2 
L 281.936673 -11.2 
L 281.266533 -11.2 
L 280.596393 -11.2 
L 279.926253 -11.2 
L 279.256112 -11.2 
L 278.585972 -11.2 
L 277.915832 -11.2 
L 277.245691 -11.2 
L 276.575551 -11.2 
L 275.905411 -11.2 
L 275.235271 -11.2 
L 274.56513 -11.2 
L 273.89499 -11.2 
L 273.22485 -11.2 
L 272.554709 -11.2 
L 271.884569 -11.2 
L 271.214429 -11.2 
L 270.544289 -11.2 
L 269.874148 -11.2 
L 269.204008 -11.2 
L 268.533868 -11.2 
L 267.863727 -11.2 
L 267.193587 -11.2 
L 266.523447 -11.2 
L 265.853307 -11.2 
L 265.183166 -11.2 
L 264.513026 -11.2 
L 263.842886 -11.2 
L 263.172745 -11.2 
L 262.502605 -11.2 
L 261.832465 -11.2 
L 261.162325 -11.2 
L 260.492184 -11.2 
L 259.822044 -11.2 
L 259.151904 -11.2 
L 258.481764 -11.2 
L 257.811623 -11.2 
L 257.141483 -11.2 
L 256.471343 -11.2 
L 255.801202 -11.2 
L 255.131062 -11.2 
L 254.460922 -11.2 
L 253.790782 -11.2 
L 253.120641 -11.2 
L 252.450501 -11.2 
L 251.780361 -11.2 
L 251.11022 -11.2 
L 250.44008 -11.2 
L 249.76994 -11.2 
L 249.0998 -11.2 
L 248.429659 -11.2 
L 247.759519 -11.2 
L 247.089379 -11.2 
L 246.419238 -11.2 
L 245.749098 -11.2 
L 245.078958 -11.2 
L 244.408818 -11.2 
L 243.738677 -11.2 
L 243.068537 -11.2 
L 242.398397 -11.2 
L 241.728257 -11.2 
L 241.058116 -11.2 
L 240.387976 -11.2 
L 239.717836 -11.2 
L 239.047695 -11.2 
L 238.377555 -11.2 
L 237.707415 -11.2 
L 237.037275 -11.2 
L 236.367134 -11.2 
L 235.696994 -11.2 
L 235.026854 -11.2 
L 234.356713 -11.2 
L 233.686573 -11.2 
L 233.016433 -11.2 
L 232.346293 -11.2 
L 231.676152 -11.2 
L 231.006012 -11.2 
L 230.335872 -11.2 
L 229.665731 -11.2 
L 228.995591 -11.2 
L 228.325451 -11.2 
L 227.655311 -11.2 
L 226.98517 -11.2 
L 226.31503 -11.2 
L 225.64489 -11.2 
L 224.974749 -11.2 
L 224.304609 -11.2 
L 223.634469 -11.2 
L 222.964329 -11.2 
L 222.294188 -11.2 
L 221.624048 -11.2 
L 220.953908 -11.2 
L 220.283768 -11.2 
L 219.613627 -11.2 
L 218.943487 -11.2 
L 218.273347 -11.2 
L 217.603206 -11.2 
L 216.933066 -11.2 
L 216.262926 -11.2 
L 215.592786 -11.2 
L 214.922645 -11.2 
L 214.252505 -11.2 
L 213.582365 -11.2 
L 212.912224 -11.2 
L 212.242084 -11.2 
L 211.571944 -11.2 
L 210.901804 -11.2 
L 210.231663 -11.2 
L 209.561523 -11.2 
L 208.891383 -11.2 
L 208.221242 -11.2 
L 207.551102 -11.2 
L 206.880962 -11.2 
L 206.210822 -11.2 
L 205.540681 -11.2 
L 204.870541 -11.2 
L 204.200401 -11.2 
L 203.530261 -11.2 
L 202.86012 -11.2 
L 202.18998 -11.2 
L 201.51984 -11.2 
L 200.849699 -11.2 
L 200.179559 -11.2 
L 199.509419 -11.2 
L 198.839279 -11.2 
L 198.169138 -11.2 
L 197.498998 -11.2 
L 196.828858 -11.2 
L 196.158717 -11.2 
L 195.488577 -11.2 
L 194.818437 -11.2 
L 194.148297 -11.2 
L 193.478156 -11.2 
L 192.808016 -11.2 
L 192.137876 -11.2 
L 191.467735 -11.2 
L 190.797595 -11.2 
L 190.127455 -11.2 
L 189.457315 -11.2 
L 188.787174 -11.2 
L 188.117034 -11.2 
L 187.446894 -11.2 
L 186.776754 -11.2 
L 186.106613 -11.2 
L 185.436473 -11.2 
L 184.766333 -11.2 
L 184.096192 -11.2 
L 183.426052 -11.2 
L 182.755912 -11.2 
L 182.085772 -11.2 
L 181.415631 -11.2 
L 180.745491 -11.2 
L 180.075351 -11.2 
L 179.40521 -11.2 
L 178.73507 -11.2 
L 178.06493 -11.2 
L 177.39479 -11.2 
L 176.724649 -11.2 
L 176.054509 -11.2 
L 175.384369 -11.2 
L 174.714228 -11.2 
L 174.044088 -11.2 
L 173.373948 -11.2 
L 172.703808 -11.2 
L 172.033667 -11.2 
L 171.363527 -11.2 
L 170.693387 -11.2 
L 170.023246 -11.2 
L 169.353106 -11.2 
L 168.682966 -11.2 
L 168.012826 -11.2 
L 167.342685 -11.2 
L 166.672545 -11.2 
L 166.002405 -11.2 
L 165.332265 -11.2 
L 164.662124 -11.2 
L 163.991984 -11.2 
L 163.321844 -11.2 
L 162.651703 -11.2 
L 161.981563 -11.2 
L 161.311423 -11.2 
L 160.641283 -11.2 
L 159.971142 -11.2 
L 159.301002 -11.2 
L 158.630862 -11.2 
L 157.960721 -11.2 
L 157.290581 -11.2 
L 156.620441 -11.2 
L 155.950301 -11.2 
L 155.28016 -11.2 
L 154.61002 -11.2 
L 153.93988 -11.2 
L 153.269739 -11.2 
L 152.599599 -11.2 
L 151.929459 -11.2 
L 151.259319 -11.2 
L 150.589178 -11.2 
L 149.919038 -11.2 
L 149.248898 -11.2 
L 148.578758 -11.2 
L 147.908617 -11.2 
L 147.238477 -11.2 
L 146.568337 -11.2 
L 145.898196 -11.2 
L 145.228056 -11.2 
L 144.557916 -11.2 
L 143.887776 -11.2 
L 143.217635 -11.2 
L 142.547495 -11.2 
L 141.877355 -11.2 
L 141.207214 -11.2 
L 140.537074 -11.2 
L 139.866934 -11.2 
L 139.196794 -11.2 
L 138.526653 -11.2 
L 137.856513 -11.2 
L 137.186373 -11.2 
L 136.516232 -11.2 
L 135.846092 -11.2 
L 135.175952 -11.2 
L 134.505812 -11.2 
L 133.835671 -11.2 
L 133.165531 -11.2 
L 132.495391 -11.2 
L 131.825251 -11.2 
L 131.15511 -11.2 
L 130.48497 -11.2 
L 129.81483 -11.2 
L 129.144689 -11.2 
L 128.474549 -11.2 
L 127.804409 -11.2 
L 127.134269 -11.2 
L 126.464128 -11.2 
L 125.793988 -11.2 
L 125.123848 -11.2 
L 124.453707 -11.2 
L 123.783567 -11.2 
L 123.113427 -11.2 
L 122.443287 -11.2 
L 121.773146 -11.2 
L 121.103006 -11.2 
L 120.432866 -11.2 
L 119.762725 -11.2 
L 119.092585 -11.2 
L 118.422445 -11.2 
L 117.752305 -11.2 
L 117.082164 -11.2 
L 116.412024 -11.2 
L 115.741884 -11.2 
L 115.071743 -11.2 
L 114.401603 -11.2 
L 113.731463 -11.2 
L 113.061323 -11.2 
L 112.391182 -11.2 
L 111.721042 -11.2 
L 111.050902 -11.2 
L 110.380762 -11.2 
L 109.710621 -11.2 
L 109.040481 -11.2 
L 108.370341 -11.2 
L 107.7002 -11.2 
L 107.03006 -11.2 
L 106.35992 -11.2 
L 105.68978 -11.2 
L 105.019639 -11.2 
L 104.349499 -11.2 
L 103.679359 -11.2 
L 103.009218 -11.2 
L 102.339078 -11.2 
L 101.668938 -11.2 
L 100.998798 -11.2 
L 100.328657 -11.2 
L 99.658517 -11.2 
L 98.988377 -11.2 
L 98.318236 -11.2 
L 97.648096 -11.2 
L 96.977956 -11.2 
L 96.307816 -11.2 
L 95.637675 -11.2 
L 94.967535 -11.2 
L 94.297395 -11.2 
L 93.627255 -11.2 
L 92.957114 -11.2 
L 92.286974 -11.2 
L 91.616834 -11.2 
L 90.946693 -11.2 
L 90.276553 -11.2 
L 89.606413 -11.2 
L 88.936273 -11.2 
L 88.266132 -11.2 
L 87.595992 -11.2 
L 86.925852 -11.2 
L 86.255711 -11.2 
L 85.585571 -11.2 
L 84.915431 -11.2 
L 84.245291 -11.2 
L 83.57515 -11.2 
L 82.90501 -11.2 
L 82.23487 -11.2 
L 81.564729 -11.2 
L 80.894589 -11.2 
L 80.224449 -11.2 
L 79.554309 -11.2 
L 78.884168 -11.2 
L 78.214028 -11.2 
L 77.543888 -11.2 
L 76.873747 -11.2 
L 76.203607 -11.2 
L 75.533467 -11.2 
L 74.863327 -11.2 
L 74.193186 -11.2 
L 73.523046 -11.2 
L 72.852906 -11.2 
L 72.182766 -11.2 
L 71.512625 -11.2 
L 70.842485 -11.2 
L 70.172345 -11.2 
L 69.502204 -11.2 
L 68.832064 -11.2 
L 68.161924 -11.2 
L 67.491784 -11.2 
L 66.821643 -11.2 
L 66.151503 -11.2 
L 65.481363 -11.2 
L 64.811222 -11.2 
L 64.141082 -11.2 
L 63.470942 -11.2 
L 62.800802 -11.2 
L 62.130661 -11.2 
L 61.460521 -11.2 
L 60.790381 -11.2 
L 60.12024 -11.2 
L 59.4501 -11.2 
L 58.77996 -11.2 
L 58.10982 -11.2 
L 57.439679 -11.2 
L 56.769539 -11.2 
L 56.099399 -11.2 
L 55.429259 -11.2 
L 54.759118 -11.2 
L 54.088978 -11.2 
L 53.418838 -11.2 
L 52.748697 -11.2 
L 52.078557 -11.2 
L 51.408417 -11.2 
L 50.738277 -11.2 
L 50.068136 -11.2 
L 49.397996 -11.2 
L 48.727856 -11.2 
L 48.057715 -11.2 
L 47.387575 -11.2 
L 46.717435 -11.2 
L 46.047295 -11.2 
L 45.377154 -11.2 
L 44.707014 -11.2 
L 44.036874 -11.2 
L 43.366733 -11.2 
L 42.696593 -11.2 
L 42.026453 -11.2 
L 41.356313 -11.2 
L 40.686172 -11.2 
L 40.016032 -11.2 
L 39.345892 -11.2 
L 38.675752 -11.2 
L 38.005611 -11.2 
L 37.335471 -11.2 
L 36.665331 -11.2 
L 35.99519 -11.2 
L 35.32505 -11.2 
L 34.65491 -11.2 
L 33.98477 -11.2 
L 33.314629 -11.2 
L 32.644489 -11.2 
L 31.974349 -11.2 
L 31.304208 -11.2 
L 30.634068 -11.2 
L 29.963928 -11.2 
L 29.293788 -11.2 
L 28.623647 -11.2 
L 27.953507 -11.2 
L 27.283367 -11.2 
L 26.613226 -11.2 
L 25.943086 -11.2 
L 25.272946 -11.2 
L 24.602806 -11.2 
L 23.932665 -11.2 
L 23.262525 -11.2 
L 22.592385 -11.2 
L 21.922244 -11.2 
L 21.252104 -11.2 
L 20.581964 -11.2 
L 19.911824 -11.2 
L 19.241683 -11.2 
L 18.571543 -11.2 
L 17.901403 -11.2 
L 17.231263 -11.2 
L 16.561122 -11.2 
L 15.890982 -11.2 
L 15.220842 -11.2 
L 14.550701 -11.2 
L 13.880561 -11.2 
L 13.210421 -11.2 
L 12.540281 -11.2 
L 11.87014 -11.2 
L 11.2 -11.2 
z
" style="stroke: #d4726a; stroke-opacity: 0.4"/>
    </defs>
    <g clip-path="url(#p3b6f0103c8)">
     <use xlink:href="#mc209875b84" x="0" y="316.8" style="fill: #d4726a; fill-opacity: 0.4; stroke: #d4726a; stroke-opacity: 0.4"/>
    </g>
   </g>
   <g id="matplotlib.axis_1">
    <g id="xtick_1">
     <g id="line2d_1">
      <defs>
       <path id="m48b50bbaec" d="M 0 0 
L 0 4 
" style="stroke: #000000; stroke-width: 0.8"/>
      </defs>
      <g>
       <use xlink:href="#m48b50bbaec" x="11.2" y="305.6" style="stroke: #000000; stroke-width: 0.8"/>
      </g>
     </g>
    </g>
    <g id="xtick_2">
     <g id="line2d_2">
      <g>
       <use xlink:href="#m48b50bbaec" x="84.645193" y="305.6" style="stroke: #000000; stroke-width: 0.8"/>
      </g>
     </g>
    </g>
    <g id="xtick_3">
     <g id="line2d_3">
      <g>
       <use xlink:href="#m48b50bbaec" x="158.090386" y="305.6" style="stroke: #000000; stroke-width: 0.8"/>
      </g>
     </g>
    </g>
    <g id="xtick_4">
     <g id="line2d_4">
      <g>
       <use xlink:href="#m48b50bbaec" x="231.53558" y="305.6" style="stroke: #000000; stroke-width: 0.8"/>
      </g>
     </g>
    </g>
    <g id="xtick_5">
     <g id="line2d_5">
      <g>
       <use xlink:href="#m48b50bbaec" x="304.980773" y="305.6" style="stroke: #000000; stroke-width: 0.8"/>
      </g>
     </g>
    </g>
   </g>
   <g id="matplotlib.axis_2">
    <g id="ytick_1">
     <g id="line2d_6">
      <defs>
       <path id="m9b201aba8a" d="M 0 0 
L -4 0 
" style="stroke: #000000; stroke-width: 0.8"/>
      </defs>
      <g>
       <use xlink:href="#m9b201aba8a" x="11.2" y="305.6" style="stroke: #000000; stroke-width: 0.8"/>
      </g>
     </g>
    </g>
    <g id="ytick_2">
     <g id="line2d_7">
      <g>
       <use xlink:href="#m9b201aba8a" x="11.2" y="267.713667" style="stroke: #000000; stroke-width: 0.8"/>
      </g>
     </g>
    </g>
    <g id="ytick_3">
     <g id="line2d_8">
      <g>
       <use xlink:href="#m9b201aba8a" x="11.2" y="229.827335" style="stroke: #000000; stroke-width: 0.8"/>
      </g>
     </g>
    </g>
    <g id="ytick_4">
     <g id="line2d_9">
      <g>
       <use xlink:href="#m9b201aba8a" x="11.2" y="191.941002" style="stroke: #000000; stroke-width: 0.8"/>
      </g>
     </g>
    </g>
    <g id="ytick_5">
     <g id="line2d_10">
      <g>
       <use xlink:href="#m9b201aba8a" x="11.2" y="154.054669" style="stroke: #000000; stroke-width: 0.8"/>
      </g>
     </g>
    </g>
    <g id="ytick_6">
     <g id="line2d_11">
      <g>
       <use xlink:href="#m9b201aba8a" x="11.2" y="116.168336" style="stroke: #000000; stroke-width: 0.8"/>
      </g>
     </g>
    </g>
    <g id="ytick_7">
     <g id="line2d_12">
      <g>
       <use xlink:href="#m9b201aba8a" x="11.2" y="78.282004" style="stroke: #000000; stroke-width: 0.8"/>
      </g>
     </g>
    </g>
    <g id="ytick_8">
     <g id="line2d_13">
      <g>
       <use xlink:href="#m9b201aba8a" x="11.2" y="40.395671" style="stroke: #000000; stroke-width: 0.8"/>
      </g>
     </g>
    </g>
   </g>
   <g id="line2d_14">
    <path d="M 11.2 123.244061 
L 13.880561 84.338111 
L 15.220842 67.147898 
L 16.561122 52.195281 
L 17.901403 39.919723 
L 19.241683 30.641153 
L 19.911824 27.188598 
L 20.581964 24.542869 
L 21.252104 22.704548 
L 21.922244 21.665547 
L 22.592385 21.409524 
L 23.262525 21.912436 
L 23.932665 23.143224 
L 24.602806 25.064597 
L 25.272946 27.633898 
L 25.943086 30.804027 
L 27.283367 38.741854 
L 28.623647 48.44853 
L 30.634068 65.363905 
L 33.98477 96.480577 
L 37.335471 127.051104 
L 40.016032 149.150191 
L 42.026453 163.935456 
L 44.036874 177.138023 
L 46.047295 188.822582 
L 48.057715 199.101041 
L 50.068136 208.099911 
L 52.078557 215.942462 
L 54.088978 222.741516 
L 56.099399 228.598564 
L 58.10982 233.60602 
L 60.12024 237.85081 
L 62.130661 241.418439 
L 64.141082 244.397055 
L 66.151503 246.880839 
L 68.161924 248.971765 
L 70.842485 251.337305 
L 79.554309 258.473311 
L 82.90501 261.724445 
L 89.606413 268.439936 
L 91.616834 270.165584 
L 93.627255 271.635758 
L 95.637675 272.821106 
L 97.648096 273.724073 
L 99.658517 274.375646 
L 102.339078 274.944575 
L 105.68978 275.383143 
L 111.721042 276.158602 
L 115.071743 276.844691 
L 117.752305 277.586106 
L 120.432866 278.522757 
L 123.113427 279.669937 
L 126.464128 281.389117 
L 131.15511 284.133276 
L 135.175952 286.418475 
L 137.856513 287.719772 
L 140.537074 288.78401 
L 143.217635 289.631188 
L 147.238477 290.649257 
L 165.332265 294.77377 
L 180.745491 297.628828 
L 184.766333 298.106904 
L 190.127455 298.500498 
L 197.498998 299.067099 
L 202.18998 299.659299 
L 207.551102 300.560578 
L 222.294188 303.188555 
L 226.98517 303.704289 
L 232.346293 304.035286 
L 270.544289 305.454926 
L 281.266533 305.584238 
L 314.103407 305.6 
L 345.6 305.6 
L 345.6 305.6 
" clip-path="url(#p3b6f0103c8)" style="fill: none; stroke: #b5443b; stroke-width: 1.5; stroke-linecap: square"/>
   </g>
   <g id="patch_3">
    <path d="M 11.2 305.6 
L 11.2 7.2 
" style="fill: none; stroke: #000000; stroke-width: 0.8; stroke-linejoin: miter; stroke-linecap: square"/>
   </g>
   <g id="patch_4">
    <path d="M 345.6 305.6 
L 345.6 7.2 
" style="fill: none; stroke: #000000; stroke-width: 0.8; stroke-linejoin: miter; stroke-linecap: square"/>
   </g>
   <g id="patch_5">
    <path d="M 11.2 305.6 
L 345.6 305.6 
" style="fill: none; stroke: #000000; stroke-width: 0.8; stroke-linejoin: miter; stroke-linecap: square"/>
   </g>
   <g id="patch_6">
    <path d="M 11.2 7.2 
L 345.6 7.2 
" style="fill: none; stroke: #000000; stroke-width: 0.8; stroke-linejoin: miter; stroke-linecap: square"/>
   </g>
  </g>
 </g>
 <defs>
  <clipPath id="p3b6f0103c8">
   <rect x="11.2" y="7.2" width="334.4" height="298.4"/>
  </clipPath>
 </defs>
</svg>
