<?xml version="1.0" encoding="utf-8" standalone="no"?>
<!DOCTYPE svg PUBLIC "-//W3C//DTD SVG 1.1//EN"
  "http://www.w3.org/Graphics/SVG/1.1/DTD/svg11.dtd">
<svg xmlns:xlink="http://www.w3.org/1999/xlink" width="352.8pt" height="316.8pt" viewBox="0 0 352.8 316.8" xmlns="http://www.w3.org/2000/svg" version="1.1">
 <metadata>
  <rdf:RDF xmlns:dc="http://purl.org/dc/elements/1.1/" xmlns:cc="http://creativecommons.org/ns#" xmlns:rdf="http://www.w3.org/1999/02/22-rdf-syntax-ns#">
   <cc:Work>
    <dc:type rdf:resource="http://purl.org/dc/dcmitype/StillImage"/>
    <dc:date>2026-06-19T18:13:13.850151</dc:date>
    <dc:format>image/svg+xml</dc:format>
    <dc:creator>
     <cc:Agent>
      <dc:title>Matplotlib v3.10.8, https://matplotlib.org/</dc:title>
     </cc:Agent>
    </dc:creator>
   </cc:Work>
  </rdf:RDF>
 </metadata>
 <defs>
  <style type="text/css">*{stroke-linejoin: round; stroke-linecap: butt}</style>
 </defs>
 <g id="figure_1">
  <g id="patch_1">
   <path d="M 0 316.8 
L 352.8 316.8 
L 352.8 0 
L 0 0 
z
" style="fill: #ffffff"/>
  </g>
  <g id="axes_1">
   <g id="patch_2">
    <path d="M 11.2 305.6 
L 345.6 305.6 
L 345.6 7.2 
L 11.2 7.2 
z
" style="fill: #ffffff"/>
   </g>
   <g id="FillBetweenPolyCollection_1">
    <defs>
     <path id="m0bdc827da7" d="M 11.2 -11.2 
L 11.2 -184.005343 
L 11.87014 -194.415645 
L 12.540281 -204.677773 
L 13.210421 -214.710904 
L 13.880561 -224.435018 
L 14.550701 -233.772264 
L 15.220842 -242.648296 
L 15.890982 -250.993545 
L 16.561122 -258.744396 
L 17.231263 -265.844229 
L 17.901403 -272.244313 
L 18.571543 -277.904517 
L 19.241683 -282.793831 
L 19.911824 -286.890679 
L 20.581964 -290.183031 
L 21.252104 -292.668311 
L 21.922244 -294.353106 
L 22.592385 -295.252706 
L 23.262525 -295.390476 
L 23.932665 -294.797096 
L 24.602806 -293.509691 
L 25.272946 -291.570881 
L 25.943086 -289.027779 
L 26.613226 -285.930961 
L 27.283367 -282.333448 
L 27.953507 -278.289708 
L 28.623647 -273.854718 
L 29.293788 -269.083088 
L 29.963928 -264.028277 
L 30.634068 -258.741906 
L 31.304208 -253.273172 
L 31.974349 -247.668373 
L 32.644489 -241.970541 
L 33.314629 -236.219185 
L 33.98477 -230.450126 
L 34.65491 -224.695428 
L 35.32505 -218.983416 
L 35.99519 -213.338758 
L 36.665331 -207.782607 
L 37.335471 -202.332799 
L 38.005611 -197.004074 
L 38.675752 -191.808336 
L 39.345892 -186.754914 
L 40.016032 -181.850839 
L 40.686172 -177.101113 
L 41.356313 -172.508971 
L 42.026453 -168.076125 
L 42.696593 -163.802994 
L 43.366733 -159.688916 
L 44.036874 -155.732324 
L 44.707014 -151.930921 
L 45.377154 -148.28181 
L 46.047295 -144.781621 
L 46.717435 -141.42661 
L 47.387575 -138.212743 
L 48.057715 -135.135765 
L 48.727856 -132.191257 
L 49.397996 -129.374682 
L 50.068136 -126.681427 
L 50.738277 -124.106829 
L 51.408417 -121.646209 
L 52.078557 -119.294892 
L 52.748697 -117.04823 
L 53.418838 -114.901624 
L 54.088978 -112.850539 
L 54.759118 -110.890522 
L 55.429259 -109.017218 
L 56.099399 -107.226382 
L 56.769539 -105.513894 
L 57.439679 -103.875763 
L 58.10982 -102.308136 
L 58.77996 -100.807302 
L 59.4501 -99.369694 
L 60.12024 -97.991884 
L 60.790381 -96.670579 
L 61.460521 -95.402616 
L 62.130661 -94.184951 
L 62.800802 -93.014651 
L 63.470942 -91.888878 
L 64.141082 -90.804886 
L 64.811222 -89.760003 
L 65.481363 -88.751627 
L 66.151503 -87.777215 
L 66.821643 -86.834285 
L 67.491784 -85.920405 
L 68.161924 -85.033203 
L 68.832064 -84.170364 
L 69.502204 -83.329644 
L 70.172345 -82.508873 
L 70.842485 -81.705973 
L 71.512625 -80.918969 
L 72.182766 -80.146004 
L 72.852906 -79.385352 
L 73.523046 -78.635437 
L 74.193186 -77.894843 
L 74.863327 -77.162324 
L 75.533467 -76.436818 
L 76.203607 -75.717446 
L 76.873747 -75.00352 
L 77.543888 -74.294538 
L 78.214028 -73.590185 
L 78.884168 -72.890318 
L 79.554309 -72.194961 
L 80.224449 -71.504288 
L 80.894589 -70.818612 
L 81.564729 -70.138364 
L 82.23487 -69.464078 
L 82.90501 -68.796371 
L 83.57515 -68.135931 
L 84.245291 -67.483493 
L 84.915431 -66.83983 
L 85.585571 -66.205733 
L 86.255711 -65.582005 
L 86.925852 -64.969444 
L 87.595992 -64.368838 
L 88.266132 -63.780952 
L 88.936273 -63.206522 
L 89.606413 -62.646248 
L 90.276553 -62.100785 
L 90.946693 -61.570735 
L 91.616834 -61.05664 
L 92.286974 -60.558969 
L 92.957114 -60.078112 
L 93.627255 -59.614361 
L 94.297395 -59.167908 
L 94.967535 -58.738821 
L 95.637675 -58.327038 
L 96.307816 -57.932353 
L 96.977956 -57.554401 
L 97.648096 -57.192654 
L 98.318236 -56.846407 
L 98.988377 -56.514781 
L 99.658517 -56.196716 
L 100.328657 -55.890982 
L 100.998798 -55.596181 
L 101.668938 -55.310767 
L 102.339078 -55.033063 
L 103.009218 -54.761283 
L 103.679359 -54.493564 
L 104.349499 -54.227996 
L 105.019639 -53.962658 
L 105.68978 -53.695658 
L 106.35992 -53.425168 
L 107.03006 -53.149463 
L 107.7002 -52.86696 
L 108.370341 -52.576253 
L 109.040481 -52.276137 
L 109.710621 -51.965643 
L 110.380762 -51.644049 
L 111.050902 -51.310899 
L 111.721042 -50.966009 
L 112.391182 -50.609464 
L 113.061323 -50.241613 
L 113.731463 -49.863055 
L 114.401603 -49.474618 
L 115.071743 -49.077336 
L 115.741884 -48.672417 
L 116.412024 -48.261215 
L 117.082164 -47.845191 
L 117.752305 -47.425884 
L 118.422445 -47.00487 
L 119.092585 -46.583736 
L 119.762725 -46.164045 
L 120.432866 -45.747312 
L 121.103006 -45.334978 
L 121.773146 -44.928395 
L 122.443287 -44.52881 
L 123.113427 -44.137354 
L 123.783567 -43.755039 
L 124.453707 -43.382754 
L 125.123848 -43.021266 
L 125.793988 -42.671226 
L 126.464128 -42.333176 
L 127.134269 -42.007549 
L 127.804409 -41.694684 
L 128.474549 -41.394829 
L 129.144689 -41.10815 
L 129.81483 -40.834731 
L 130.48497 -40.574585 
L 131.15511 -40.327649 
L 131.825251 -40.09379 
L 132.495391 -39.872798 
L 133.165531 -39.664388 
L 133.835671 -39.468195 
L 134.505812 -39.28377 
L 135.175952 -39.110572 
L 135.846092 -38.947971 
L 136.516232 -38.795237 
L 137.186373 -38.651546 
L 137.856513 -38.515974 
L 138.526653 -38.387501 
L 139.196794 -38.265017 
L 139.866934 -38.147329 
L 140.537074 -38.033168 
L 141.207214 -37.921206 
L 141.877355 -37.810066 
L 142.547495 -37.698344 
L 143.217635 -37.584624 
L 143.887776 -37.4675 
L 144.557916 -37.345599 
L 145.228056 -37.217601 
L 145.898196 -37.082258 
L 146.568337 -36.93842 
L 147.238477 -36.785052 
L 147.908617 -36.621248 
L 148.578758 -36.446251 
L 149.248898 -36.259463 
L 149.919038 -36.060454 
L 150.589178 -35.848967 
L 151.259319 -35.624919 
L 151.929459 -35.388404 
L 152.599599 -35.139683 
L 153.269739 -34.879179 
L 153.93988 -34.607464 
L 154.61002 -34.325246 
L 155.28016 -34.033354 
L 155.950301 -33.732721 
L 156.620441 -33.424361 
L 157.290581 -33.109354 
L 157.960721 -32.788825 
L 158.630862 -32.463924 
L 159.301002 -32.135808 
L 159.971142 -31.805622 
L 160.641283 -31.474483 
L 161.311423 -31.143467 
L 161.981563 -30.813595 
L 162.651703 -30.48582 
L 163.321844 -30.16102 
L 163.991984 -29.839993 
L 164.662124 -29.523449 
L 165.332265 -29.212008 
L 166.002405 -28.9062 
L 166.672545 -28.606465 
L 167.342685 -28.313157 
L 168.012826 -28.026547 
L 168.682966 -27.746829 
L 169.353106 -27.474123 
L 170.023246 -27.208491 
L 170.693387 -26.949936 
L 171.363527 -26.698417 
L 172.033667 -26.453857 
L 172.703808 -26.216149 
L 173.373948 -25.985172 
L 174.044088 -25.760796 
L 174.714228 -25.542889 
L 175.384369 -25.331331 
L 176.054509 -25.126017 
L 176.724649 -24.926863 
L 177.39479 -24.733815 
L 178.06493 -24.546847 
L 178.73507 -24.365971 
L 179.40521 -24.19123 
L 180.075351 -24.022701 
L 180.745491 -23.860495 
L 181.415631 -23.704747 
L 182.085772 -23.555615 
L 182.755912 -23.413271 
L 183.426052 -23.277893 
L 184.096192 -23.149655 
L 184.766333 -23.028715 
L 185.436473 -22.915205 
L 186.106613 -22.809221 
L 186.776754 -22.710804 
L 187.446894 -22.619937 
L 188.117034 -22.536528 
L 188.787174 -22.4604 
L 189.457315 -22.391286 
L 190.127455 -22.328818 
L 190.797595 -22.272526 
L 191.467735 -22.221833 
L 192.137876 -22.176056 
L 192.808016 -22.134409 
L 193.478156 -22.096012 
L 194.148297 -22.059895 
L 194.818437 -22.025016 
L 195.488577 -21.990271 
L 196.158717 -21.954512 
L 196.828858 -21.916569 
L 197.498998 -21.875265 
L 198.169138 -21.829441 
L 198.839279 -21.777976 
L 199.509419 -21.719811 
L 200.179559 -21.653963 
L 200.849699 -21.579551 
L 201.51984 -21.495808 
L 202.18998 -21.402099 
L 202.86012 -21.297929 
L 203.530261 -21.182956 
L 204.200401 -21.056991 
L 204.870541 -20.920008 
L 205.540681 -20.772134 
L 206.210822 -20.613655 
L 206.880962 -20.444998 
L 207.551102 -20.266734 
L 208.221242 -20.079557 
L 208.891383 -19.884276 
L 209.561523 -19.681799 
L 210.231663 -19.473119 
L 210.901804 -19.259295 
L 211.571944 -19.04144 
L 212.242084 -18.820701 
L 212.912224 -18.598245 
L 213.582365 -18.375243 
L 214.252505 -18.152854 
L 214.922645 -17.932213 
L 215.592786 -17.714417 
L 216.262926 -17.500509 
L 216.933066 -17.291473 
L 217.603206 -17.08822 
L 218.273347 -16.891578 
L 218.943487 -16.702288 
L 219.613627 -16.520996 
L 220.283768 -16.348247 
L 220.953908 -16.184485 
L 221.624048 -16.030048 
L 222.294188 -15.885173 
L 222.964329 -15.749991 
L 223.634469 -15.624537 
L 224.304609 -15.508751 
L 224.974749 -15.402484 
L 225.64489 -15.305508 
L 226.31503 -15.217522 
L 226.98517 -15.138162 
L 227.655311 -15.067008 
L 228.325451 -15.003597 
L 228.995591 -14.947429 
L 229.665731 -14.897978 
L 230.335872 -14.8547 
L 231.006012 -14.81704 
L 231.676152 -14.784437 
L 232.346293 -14.756335 
L 233.016433 -14.732182 
L 233.686573 -14.71144 
L 234.356713 -14.693581 
L 235.026854 -14.678099 
L 235.696994 -14.664503 
L 236.367134 -14.652326 
L 237.037275 -14.641122 
L 237.707415 -14.630471 
L 238.377555 -14.619975 
L 239.047695 -14.609267 
L 239.717836 -14.598004 
L 240.387976 -14.585875 
L 241.058116 -14.5726 
L 241.728257 -14.557927 
L 242.398397 -14.541641 
L 243.068537 -14.523557 
L 243.738677 -14.503521 
L 244.408818 -14.481415 
L 245.078958 -14.457149 
L 245.749098 -14.430662 
L 246.419238 -14.401922 
L 247.089379 -14.370918 
L 247.759519 -14.337659 
L 248.429659 -14.302174 
L 249.0998 -14.264501 
L 249.76994 -14.224689 
L 250.44008 -14.182792 
L 251.11022 -14.138866 
L 251.780361 -14.092966 
L 252.450501 -14.045144 
L 253.120641 -13.99545 
L 253.790782 -13.943928 
L 254.460922 -13.890617 
L 255.131062 -13.835555 
L 255.801202 -13.778779 
L 256.471343 -13.720325 
L 257.141483 -13.660237 
L 257.811623 -13.598564 
L 258.481764 -13.53537 
L 259.151904 -13.470729 
L 259.822044 -13.404739 
L 260.492184 -13.337515 
L 261.162325 -13.269196 
L 261.832465 -13.199945 
L 262.502605 -13.129951 
L 263.172745 -13.059429 
L 263.842886 -12.988614 
L 264.513026 -12.917764 
L 265.183166 -12.847156 
L 265.853307 -12.777078 
L 266.523447 -12.707831 
L 267.193587 -12.639716 
L 267.863727 -12.573033 
L 268.533868 -12.508075 
L 269.204008 -12.445121 
L 269.874148 -12.384427 
L 270.544289 -12.326227 
L 271.214429 -12.27072 
L 271.884569 -12.218074 
L 272.554709 -12.168415 
L 273.22485 -12.121828 
L 273.89499 -12.078354 
L 274.56513 -12.037993 
L 275.235271 -12.000698 
L 275.905411 -11.966383 
L 276.575551 -11.934923 
L 277.245691 -11.906155 
L 277.915832 -11.879889 
L 278.585972 -11.855906 
L 279.256112 -11.83397 
L 279.926253 -11.813827 
L 280.596393 -11.79522 
L 281.266533 -11.777885 
L 281.936673 -11.761566 
L 282.606814 -11.746016 
L 283.276954 -11.731001 
L 283.947094 -11.716307 
L 284.617234 -11.701743 
L 285.287375 -11.687144 
L 285.957515 -11.672372 
L 286.627655 -11.657318 
L 287.297796 -11.641901 
L 287.967936 -11.626072 
L 288.638076 -11.609806 
L 289.308216 -11.593105 
L 289.978357 -11.575996 
L 290.648497 -11.558525 
L 291.318637 -11.540757 
L 291.988778 -11.522769 
L 292.658918 -11.504653 
L 293.329058 -11.486505 
L 293.999198 -11.468428 
L 294.669339 -11.450525 
L 295.339479 -11.432898 
L 296.009619 -11.415646 
L 296.67976 -11.398859 
L 297.3499 -11.382622 
L 298.02004 -11.36701 
L 298.69018 -11.352086 
L 299.360321 -11.337903 
L 300.030461 -11.324502 
L 300.700601 -11.311913 
L 301.370741 -11.300154 
L 302.040882 -11.289233 
L 302.711022 -11.279147 
L 303.381162 -11.269885 
L 304.051303 -11.261427 
L 304.721443 -11.253746 
L 305.391583 -11.246809 
L 306.061723 -11.240579 
L 306.731864 -11.235014 
L 307.402004 -11.230071 
L 308.072144 -11.225704 
L 308.742285 -11.221868 
L 309.412425 -11.218515 
L 310.082565 -11.215601 
L 310.752705 -11.213083 
L 311.422846 -11.210918 
L 312.092986 -11.209067 
L 312.763126 -11.207493 
L 313.433267 -11.206162 
L 314.103407 -11.205042 
L 314.773547 -11.204106 
L 315.443687 -11.203326 
L 316.113828 -11.202682 
L 316.783968 -11.202151 
L 317.454108 -11.201717 
L 318.124248 -11.201363 
L 318.794389 -11.201077 
L 319.464529 -11.200847 
L 320.134669 -11.200662 
L 320.80481 -11.200515 
L 321.47495 -11.200399 
L 322.14509 -11.200307 
L 322.81523 -11.200235 
L 323.485371 -11.200179 
L 324.155511 -11.200136 
L 324.825651 -11.200103 
L 325.495792 -11.200077 
L 326.165932 -11.200057 
L 326.836072 -11.200043 
L 327.506212 -11.200032 
L 328.176353 -11.200023 
L 328.846493 -11.200017 
L 329.516633 -11.200012 
L 330.186774 -11.200009 
L 330.856914 -11.200006 
L 331.527054 -11.200005 
L 332.197194 -11.200003 
L 332.867335 -11.200002 
L 333.537475 -11.200002 
L 334.207615 -11.200001 
L 334.877756 -11.200001 
L 335.547896 -11.200001 
L 336.218036 -11.2 
L 336.888176 -11.2 
L 337.558317 -11.2 
L 338.228457 -11.2 
L 338.898597 -11.2 
L 339.568737 -11.2 
L 340.238878 -11.2 
L 340.909018 -11.2 
L 341.579158 -11.2 
L 342.249299 -11.2 
L 342.919439 -11.2 
L 343.589579 -11.2 
L 344.259719 -11.2 
L 344.92986 -11.2 
L 345.6 -11.2 
L 345.6 -11.2 
L 345.6 -11.2 
L 344.92986 -11.2 
L 344.259719 -11.2 
L 343.589579 -11.2 
L 342.919439 -11.2 
L 342.249299 -11.2 
L 341.579158 -11.2 
L 340.909018 -11.2 
L 340.238878 -11.2 
L 339.568737 -11.2 
L 338.898597 -11.2 
L 338.228457 -11.2 
L 337.558317 -11.2 
L 336.888176 -11.2 
L 336.218036 -11.2 
L 335.547896 -11.2 
L 334.877756 -11.2 
L 334.207615 -11.2 
L 333.537475 -11.2 
L 332.867335 -11.2 
L 332.197194 -11.2 
L 331.527054 -11.2 
L 330.856914 -11.2 
L 330.186774 -11.2 
L 329.516633 -11.2 
L 328.846493 -11.2 
L 328.176353 -11.2 
L 327.506212 -11.2 
L 326.836072 -11.2 
L 326.165932 -11.2 
L 325.495792 -11.2 
L 324.825651 -11.2 
L 324.155511 -11.2 
L 323.485371 -11.2 
L 322.81523 -11.2 
L 322.14509 -11.2 
L 321.47495 -11.2 
L 320.80481 -11.2 
L 320.134669 -11.2 
L 319.464529 -11.2 
L 318.794389 -11.2 
L 318.124248 -11.2 
L 317.454108 -11.2 
L 316.783968 -11.2 
L 316.113828 -11.2 
L 315.443687 -11.2 
L 314.773547 -11.2 
L 314.103407 -11.2 
L 313.433267 -11.2 
L 312.763126 -11.2 
L 312.092986 -11.2 
L 311.422846 -11.2 
L 310.752705 -11.2 
L 310.082565 -11.2 
L 309.412425 -11.2 
L 308.742285 -11.2 
L 308.072144 -11.2 
L 307.402004 -11.2 
L 306.731864 -11.2 
L 306.061723 -11.2 
L 305.391583 -11.2 
L 304.721443 -11.2 
L 304.051303 -11.2 
L 303.381162 -11.2 
L 302.711022 -11.2 
L 302.040882 -11.2 
L 301.370741 -11.2 
L 300.700601 -11.2 
L 300.030461 -11.2 
L 299.360321 -11.2 
L 298.69018 -11.2 
L 298.02004 -11.2 
L 297.3499 -11.2 
L 296.67976 -11.2 
L 296.009619 -11.2 
L 295.339479 -11.2 
L 294.669339 -11.2 
L 293.999198 -11.2 
L 293.329058 -11.2 
L 292.658918 -11.2 
L 291.988778 -11.2 
L 291.318637 -11.2 
L 290.648497 -11.2 
L 289.978357 -11.2 
L 289.308216 -11.2 
L 288.638076 -11.2 
L 287.967936 -11.2 
L 287.297796 -11.2 
L 286.627655 -11.2 
L 285.957515 -11.2 
L 285.287375 -11.2 
L 284.617234 -11.2 
L 283.947094 -11.2 
L 283.276954 -11.2 
L 282.606814 -11.2 
L 281.936673 -11.2 
L 281.266533 -11.2 
L 280.596393 -11.2 
L 279.926253 -11.2 
L 279.256112 -11.2 
L 278.585972 -11.2 
L 277.915832 -11.2 
L 277.245691 -11.2 
L 276.575551 -11.2 
L 275.905411 -11.2 
L 275.235271 -11.2 
L 274.56513 -11.2 
L 273.89499 -11.2 
L 273.22485 -11.2 
L 272.554709 -11.2 
L 271.884569 -11.2 
L 271.214429 -11.2 
L 270.544289 -11.2 
L 269.874148 -11.2 
L 269.204008 -11.2 
L 268.533868 -11.2 
L 267.863727 -11.2 
L 267.193587 -11.2 
L 266.523447 -11.2 
L 265.853307 -11.2 
L 265.183166 -11.2 
L 264.513026 -11.2 
L 263.842886 -11.2 
L 263.172745 -11.2 
L 262.502605 -11.2 
L 261.832465 -11.2 
L 261.162325 -11.2 
L 260.492184 -11.2 
L 259.822044 -11.2 
L 259.151904 -11.2 
L 258.481764 -11.2 
L 257.811623 -11.2 
L 257.141483 -11.2 
L 256.471343 -11.2 
L 255.801202 -11.2 
L 255.131062 -11.2 
L 254.460922 -11.2 
L 253.790782 -11.2 
L 253.120641 -11.2 
L 252.450501 -11.2 
L 251.780361 -11.2 
L 251.11022 -11.2 
L 250.44008 -11.2 
L 249.76994 -11.2 
L 249.0998 -11.2 
L 248.429659 -11.2 
L 247.759519 -11.2 
L 247.089379 -11.2 
L 246.419238 -11.2 
L 245.749098 -11.2 
L 245.078958 -11.2 
L 244.408818 -11.2 
L 243.738677 -11.2 
L 243.068537 -11.2 
L 242.398397 -11.2 
L 241.728257 -11.2 
L 241.058116 -11.2 
L 240.387976 -11.2 
L 239.717836 -11.2 
L 239.047695 -11.2 
L 238.377555 -11.2 
L 237.707415 -11.2 
L 237.037275 -11.2 
L 236.367134 -11.2 
L 235.696994 -11.2 
L 235.026854 -11.2 
L 234.356713 -11.2 
L 233.686573 -11.2 
L 233.016433 -11.2 
L 232.346293 -11.2 
L 231.676152 -11.2 
L 231.006012 -11.2 
L 230.335872 -11.2 
L 229.665731 -11.2 
L 228.995591 -11.2 
L 228.325451 -11.2 
L 227.655311 -11.2 
L 226.98517 -11.2 
L 226.31503 -11.2 
L 225.64489 -11.2 
L 224.974749 -11.2 
L 224.304609 -11.2 
L 223.634469 -11.2 
L 222.964329 -11.2 
L 222.294188 -11.2 
L 221.624048 -11.2 
L 220.953908 -11.2 
L 220.283768 -11.2 
L 219.613627 -11.2 
L 218.943487 -11.2 
L 218.273347 -11.2 
L 217.603206 -11.2 
L 216.933066 -11.2 
L 216.262926 -11.2 
L 215.592786 -11.2 
L 214.922645 -11.2 
L 214.252505 -11.2 
L 213.582365 -11.2 
L 212.912224 -11.2 
L 212.242084 -11.2 
L 211.571944 -11.2 
L 210.901804 -11.2 
L 210.231663 -11.2 
L 209.561523 -11.2 
L 208.891383 -11.2 
L 208.221242 -11.2 
L 207.551102 -11.2 
L 206.880962 -11.2 
L 206.210822 -11.2 
L 205.540681 -11.2 
L 204.870541 -11.2 
L 204.200401 -11.2 
L 203.530261 -11.2 
L 202.86012 -11.2 
L 202.18998 -11.2 
L 201.51984 -11.2 
L 200.849699 -11.2 
L 200.179559 -11.2 
L 199.509419 -11.2 
L 198.839279 -11.2 
L 198.169138 -11.2 
L 197.498998 -11.2 
L 196.828858 -11.2 
L 196.158717 -11.2 
L 195.488577 -11.2 
L 194.818437 -11.2 
L 194.148297 -11.2 
L 193.478156 -11.2 
L 192.808016 -11.2 
L 192.137876 -11.2 
L 191.467735 -11.2 
L 190.797595 -11.2 
L 190.127455 -11.2 
L 189.457315 -11.2 
L 188.787174 -11.2 
L 188.117034 -11.2 
L 187.446894 -11.2 
L 186.776754 -11.2 
L 186.106613 -11.2 
L 185.436473 -11.2 
L 184.766333 -11.2 
L 184.096192 -11.2 
L 183.426052 -11.2 
L 182.755912 -11.2 
L 182.085772 -11.2 
L 181.415631 -11.2 
L 180.745491 -11.2 
L 180.075351 -11.2 
L 179.40521 -11.2 
L 178.73507 -11.2 
L 178.06493 -11.2 
L 177.39479 -11.2 
L 176.724649 -11.2 
L 176.054509 -11.2 
L 175.384369 -11.2 
L 174.714228 -11.2 
L 174.044088 -11.2 
L 173.373948 -11.2 
L 172.703808 -11.2 
L 172.033667 -11.2 
L 171.363527 -11.2 
L 170.693387 -11.2 
L 170.023246 -11.2 
L 169.353106 -11.2 
L 168.682966 -11.2 
L 168.012826 -11.2 
L 167.342685 -11.2 
L 166.672545 -11.2 
L 166.002405 -11.2 
L 165.332265 -11.2 
L 164.662124 -11.2 
L 163.991984 -11.2 
L 163.321844 -11.2 
L 162.651703 -11.2 
L 161.981563 -11.2 
L 161.311423 -11.2 
L 160.641283 -11.2 
L 159.971142 -11.2 
L 159.301002 -11.2 
L 158.630862 -11.2 
L 157.960721 -11.2 
L 157.290581 -11.2 
L 156.620441 -11.2 
L 155.950301 -11.2 
L 155.28016 -11.2 
L 154.61002 -11.2 
L 153.93988 -11.2 
L 153.269739 -11.2 
L 152.599599 -11.2 
L 151.929459 -11.2 
L 151.259319 -11.2 
L 150.589178 -11.2 
L 149.919038 -11.2 
L 149.248898 -11.2 
L 148.578758 -11.2 
L 147.908617 -11.2 
L 147.238477 -11.2 
L 146.568337 -11.2 
L 145.898196 -11.2 
L 145.228056 -11.2 
L 144.557916 -11.2 
L 143.887776 -11.2 
L 143.217635 -11.2 
L 142.547495 -11.2 
L 141.877355 -11.2 
L 141.207214 -11.2 
L 140.537074 -11.2 
L 139.866934 -11.2 
L 139.196794 -11.2 
L 138.526653 -11.2 
L 137.856513 -11.2 
L 137.186373 -11.2 
L 136.516232 -11.2 
L 135.846092 -11.2 
L 135.175952 -11.2 
L 134.505812 -11.2 
L 133.835671 -11.2 
L 133.165531 -11.2 
L 132.495391 -11.2 
L 131.825251 -11.2 
L 131.15511 -11.2 
L 130.48497 -11.2 
L 129.81483 -11.2 
L 129.144689 -11.2 
L 128.474549 -11.2 
L 127.804409 -11.2 
L 127.134269 -11.2 
L 126.464128 -11.2 
L 125.793988 -11.2 
L 125.123848 -11.2 
L 124.453707 -11.2 
L 123.783567 -11.2 
L 123.113427 -11.2 
L 122.443287 -11.2 
L 121.773146 -11.2 
L 121.103006 -11.2 
L 120.432866 -11.2 
L 119.762725 -11.2 
L 119.092585 -11.2 
L 118.422445 -11.2 
L 117.752305 -11.2 
L 117.082164 -11.2 
L 116.412024 -11.2 
L 115.741884 -11.2 
L 115.071743 -11.2 
L 114.401603 -11.2 
L 113.731463 -11.2 
L 113.061323 -11.2 
L 112.391182 -11.2 
L 111.721042 -11.2 
L 111.050902 -11.2 
L 110.380762 -11.2 
L 109.710621 -11.2 
L 109.040481 -11.2 
L 108.370341 -11.2 
L 107.7002 -11.2 
L 107.03006 -11.2 
L 106.35992 -11.2 
L 105.68978 -11.2 
L 105.019639 -11.2 
L 104.349499 -11.2 
L 103.679359 -11.2 
L 103.009218 -11.2 
L 102.339078 -11.2 
L 101.668938 -11.2 
L 100.998798 -11.2 
L 100.328657 -11.2 
L 99.658517 -11.2 
L 98.988377 -11.2 
L 98.318236 -11.2 
L 97.648096 -11.2 
L 96.977956 -11.2 
L 96.307816 -11.2 
L 95.637675 -11.2 
L 94.967535 -11.2 
L 94.297395 -11.2 
L 93.627255 -11.2 
L 92.957114 -11.2 
L 92.286974 -11.2 
L 91.616834 -11.2 
L 90.946693 -11.2 
L 90.276553 -11.2 
L 89.606413 -11.2 
L 88.936273 -11.2 
L 88.266132 -11.2 
L 87.595992 -11.2 
L 86.925852 -11.2 
L 86.255711 -11.2 
L 85.585571 -11.2 
L 84.915431 -11.2 
L 84.245291 -11.2 
L 83.57515 -11.2 
L 82.90501 -11.2 
L 82.23487 -11.2 
L 81.564729 -11.2 
L 80.894589 -11.2 
L 80.224449 -11.2 
L 79.554309 -11.2 
L 78.884168 -11.2 
L 78.214028 -11.2 
L 77.543888 -11.2 
L 76.873747 -11.2 
L 76.203607 -11.2 
L 75.533467 -11.2 
L 74.863327 -11.2 
L 74.193186 -11.2 
L 73.523046 -11.2 
L 72.852906 -11.2 
L 72.182766 -11.2 
L 71.512625 -11.2 
L 70.842485 -11.2 
L 70.172345 -11.2 
L 69.502204 -11.2 
L 68.832064 -11.2 
L 68.161924 -11.2 
L 67.491784 -11.2 
L 66.821643 -11.2 
L 66.151503 -11.2 
L 65.481363 -11.2 
L 64.811222 -11.2 
L 64.141082 -11.2 
L 63.470942 -11.2 
L 62.800802 -11.2 
L 62.130661 -11.2 
L 61.460521 -11.2 
L 60.790381 -11.2 
L 60.12024 -11.2 
L 59.4501 -11.2 
L 58.77996 -11.2 
L 58.10982 -11.2 
L 57.439679 -11.2 
L 56.769539 -11.2 
L 56.099399 -11.2 
L 55.429259 -11.2 
L 54.759118 -11.2 
L 54.088978 -11.2 
L 53.418838 -11.2 
L 52.748697 -11.2 
L 52.078557 -11.2 
L 51.408417 -11.2 
L 50.738277 -11.2 
L 50.068136 -11.2 
L 49.397996 -11.2 
L 48.727856 -11.2 
L 48.057715 -11.2 
L 47.387575 -11.2 
L 46.717435 -11.2 
L 46.047295 -11.2 
L 45.377154 -11.2 
L 44.707014 -11.2 
L 44.036874 -11.2 
L 43.366733 -11.2 
L 42.696593 -11.2 
L 42.026453 -11.2 
L 41.356313 -11.2 
L 40.686172 -11.2 
L 40.016032 -11.2 
L 39.345892 -11.2 
L 38.675752 -11.2 
L 38.005611 -11.2 
L 37.335471 -11.2 
L 36.665331 -11.2 
L 35.99519 -11.2 
L 35.32505 -11.2 
L 34.65491 -11.2 
L 33.98477 -11.2 
L 33.314629 -11.2 
L 32.644489 -11.2 
L 31.974349 -11.2 
L 31.304208 -11.2 
L 30.634068 -11.2 
L 29.963928 -11.2 
L 29.293788 -11.2 
L 28.623647 -11.2 
L 27.953507 -11.2 
L 27.283367 -11.2 
L 26.613226 -11.2 
L 25.943086 -11.2 
L 25.272946 -11.2 
L 24.602806 -11.2 
L 23.932665 -11.2 
L 23.262525 -11.2 
L 22.592385 -11.2 
L 21.922244 -11.2 
L 21.252104 -11.2 
L 20.581964 -11.2 
L 19.911824 -11.2 
L 19.241683 -11.2 
L 18.571543 -11.2 
L 17.901403 -11.2 
L 17.231263 -11.2 
L 16.561122 -11.2 
L 15.890982 -11.2 
L 15.220842 -11.2 
L 14.550701 -11.2 
L 13.880561 -11.2 
L 13.210421 -11.2 
L 12.540281 -11.2 
L 11.87014 -11.2 
L 11.2 -11.2 
z
" style="stroke: #d4726a; stroke-opacity: 0.4"/>
    </defs>
    <g clip-path="url(#p88b5805e49)">
     <use xlink:href="#m0bdc827da7" x="0" y="316.8" style="fill: #d4726a; fill-opacity: 0.4; stroke: #d4726a; stroke-opacity: 0.4"/>
    </g>
   </g>
   <g id="matplotlib.axis_1">
    <g id="xtick_1">
     <g id="line2d_1">
      <defs>
       <path id="m0bbf41768b" d="M 0 0 
L 0 4 
" style="stroke: #000000; stroke-width: 0.8"/>
      </defs>
      <g>
       <use xlink:href="#m0bbf41768b" x="11.2" y="305.6" style="stroke: #000000; stroke-width: 0.8"/>
      </g>
     </g>
    </g>
    <g id="xtick_2">
     <g id="line2d_2">
      <g>
       <use xlink:href="#m0bbf41768b" x="84.645193" y="305.6" style="stroke: #000000; stroke-width: 0.8"/>
      </g>
     </g>
    </g>
    <g id="xtick_3">
     <g id="line2d_3">
      <g>
       <use xlink:href="#m0bbf41768b" x="158.090386" y="305.6" style="stroke: #000000; stroke-width: 0.8"/>
      </g>
     </g>
    </g>
    <g id="xtick_4">
     <g id="line2d_4">
      <g>
       <use xlink:href="#m0bbf41768b" x="231.53558" y="305.6" style="stroke: #000000; stroke-width: 0.8"/>
      </g>
     </g>
    </g>
    <g id="xtick_5">
     <g id="line2d_5">
      <g>
       <use xlink:href="#m0bbf41768b" x="304.980773" y="305.6" style="stroke: #000000; stroke-width: 0.8"/>
      </g>
     </g>
    </g>
   </g>
   <g id="matplotlib.axis_2">
    <g id="ytick_1">
     <g id="line2d_6">
      <defs>
       <path id="me599c856c2" d="M 0 0 
L -4 0 
" style="stroke: #000000; stroke-width: 0.8"/>
      </defs>
      <g>
       <use xlink:href="#me599c856c2" x="11.2" y="305.6" style="stroke: #000000; stroke-width: 0.8"/>
      </g>
     </g>
    </g>
    <g id="ytick_2">
     <g id="line2d_7">
      <g>
       <use xlink:href="#me599c856c2" x="11.2" y="262.640627" style="stroke: #000000; stroke-width: 0.8"/>
      </g>
     </g>
    </g>
    <g id="ytick_3">
     <g id="line2d_8">
      <g>
       <use xlink:href="#me599c856c2" x="11.2" y="219.681254" style="stroke: #000000; stroke-width: 0.8"/>
      </g>
     </g>
    </g>
    <g id="ytick_4">
     <g id="line2d_9">
      <g>
       <use xlink:href="#me599c856c2" x="11.2" y="176.721881" style="stroke: #000000; stroke-width: 0.8"/>
      </g>
     </g>
    </g>
    <g id="ytick_5">
     <g id="line2d_10">
      <g>
       <use xlink:href="#me599c856c2" x="11.2" y="133.762508" style="stroke: #000000; stroke-width: 0.8"/>
      </g>
     </g>
    </g>
    <g id="ytick_6">
     <g id="line2d_11">
      <g>
       <use xlink:href="#me599c856c2" x="11.2" y="90.803135" style="stroke: #000000; stroke-width: 0.8"/>
      </g>
     </g>
    </g>
    <g id="ytick_7">
     <g id="line2d_12">
      <g>
       <use xlink:href="#me599c856c2" x="11.2" y="47.843763" style="stroke: #000000; stroke-width: 0.8"/>
      </g>
     </g>
    </g>
   </g>
   <g id="line2d_13">
    <path d="M 11.2 132.794657 
L 13.880561 92.364982 
L 15.890982 65.806455 
L 17.231263 50.955771 
L 18.571543 38.895483 
L 19.911824 29.909321 
L 20.581964 26.616969 
L 21.252104 24.131689 
L 21.922244 22.446894 
L 22.592385 21.547294 
L 23.262525 21.409524 
L 23.932665 22.002904 
L 24.602806 23.290309 
L 25.272946 25.229119 
L 25.943086 27.772221 
L 27.283367 34.466552 
L 28.623647 42.945282 
L 30.634068 58.058094 
L 33.314629 80.580815 
L 37.335471 114.467201 
L 40.016032 134.949161 
L 42.026453 148.723875 
L 44.036874 161.067676 
L 46.047295 172.018379 
L 48.057715 181.664235 
L 50.068136 190.118573 
L 52.078557 197.505108 
L 54.088978 203.949461 
L 56.099399 209.573618 
L 58.10982 214.491864 
L 60.12024 218.808116 
L 62.130661 222.615049 
L 64.141082 225.995114 
L 66.151503 229.022785 
L 68.832064 232.629636 
L 71.512625 235.881031 
L 75.533467 240.363182 
L 80.894589 245.981388 
L 85.585571 250.594267 
L 88.936273 253.593478 
L 91.616834 255.74336 
L 94.297395 257.632092 
L 96.977956 259.245599 
L 99.658517 260.603284 
L 103.009218 262.038717 
L 109.710621 264.834357 
L 113.061323 266.558387 
L 117.082164 268.954809 
L 123.783567 273.044961 
L 127.134269 274.792451 
L 129.81483 275.965269 
L 132.495391 276.927202 
L 135.175952 277.689428 
L 138.526653 278.412499 
L 148.578758 280.353749 
L 151.259319 281.175081 
L 154.61002 282.474754 
L 158.630862 284.336076 
L 167.342685 288.486843 
L 171.363527 290.101583 
L 175.384369 291.468669 
L 179.40521 292.60877 
L 183.426052 293.522107 
L 187.446894 294.180063 
L 191.467735 294.578167 
L 202.18998 295.397901 
L 205.540681 296.027866 
L 208.891383 296.915724 
L 214.252505 298.647146 
L 218.943487 300.097712 
L 222.294188 300.914827 
L 225.64489 301.494492 
L 228.995591 301.852571 
L 233.686573 302.08856 
L 251.11022 302.661134 
L 258.481764 303.26463 
L 275.235271 304.799302 
L 281.936673 305.038434 
L 310.082565 305.584399 
L 343.589579 305.6 
L 345.6 305.6 
L 345.6 305.6 
" clip-path="url(#p88b5805e49)" style="fill: none; stroke: #b5443b; stroke-width: 1.5; stroke-linecap: square"/>
   </g>
   <g id="patch_3">
    <path d="M 11.2 305.6 
L 11.2 7.2 
" style="fill: none; stroke: #000000; stroke-width: 0.8; stroke-linejoin: miter; stroke-linecap: square"/>
   </g>
   <g id="patch_4">
    <path d="M 345.6 305.6 
L 345.6 7.2 
" style="fill: none; stroke: #000000; stroke-width: 0.8; stroke-linejoin: miter; stroke-linecap: square"/>
   </g>
   <g id="patch_5">
    <path d="M 11.2 305.6 
L 345.6 305.6 
" style="fill: none; stroke: #000000; stroke-width: 0.8; stroke-linejoin: miter; stroke-linecap: square"/>
   </g>
   <g id="patch_6">
    <path d="M 11.2 7.2 
L 345.6 7.2 
" style="fill: none; stroke: #000000; stroke-width: 0.8; stroke-linejoin: miter; stroke-linecap: square"/>
   </g>
  </g>
 </g>
 <defs>
  <clipPath id="p88b5805e49">
   <rect x="11.2" y="7.2" width="334.4" height="298.4"/>
  </clipPath>
 </defs>
</svg>
