<?xml version="1.0" encoding="utf-8" standalone="no"?>
<!DOCTYPE svg PUBLIC "-//W3C//DTD SVG 1.1//EN"
  "http://www.w3.org/Graphics/SVG/1.1/DTD/svg11.dtd">
<svg xmlns:xlink="http://www.w3.org/1999/xlink" width="305.129844pt" height="186.474687pt" viewBox="0 0 305.129844 186.474687" xmlns="http://www.w3.org/2000/svg" version="1.1">
 <metadata>
  <rdf:RDF xmlns:dc="http://purl.org/dc/elements/1.1/" xmlns:cc="http://creativecommons.org/ns#" xmlns:rdf="http://www.w3.org/1999/02/22-rdf-syntax-ns#">
   <cc:Work>
    <dc:type rdf:resource="http://purl.org/dc/dcmitype/StillImage"/>
    <dc:date>2026-07-13T23:39:15.564811</dc:date>
    <dc:format>image/svg+xml</dc:format>
    <dc:creator>
     <cc:Agent>
      <dc:title>Matplotlib v3.9.4, https://matplotlib.org/</dc:title>
     </cc:Agent>
    </dc:creator>
   </cc:Work>
  </rdf:RDF>
 </metadata>
 <defs>
  <style type="text/css">*{stroke-linejoin: round; stroke-linecap: butt}</style>
 </defs>
 <g id="figure_1">
  <g id="patch_1">
   <path d="M 0 186.474687 
L 305.129844 186.474687 
L 305.129844 0 
L 0 0 
z
" style="fill: #ffffff"/>
  </g>
  <g id="axes_1">
   <g id="patch_2">
    <path d="M 18.15375 166 
L 292.36375 166 
L 292.36375 7.2 
L 18.15375 7.2 
z
" style="fill: #ffffff"/>
   </g>
   <g id="PolyCollection_1">
    <defs>
     <path id="m2b0e2e89f4" d="M 18.15375 -20.474687 
L 18.15375 -112.426309 
L 18.703269 -118.505964 
L 19.252788 -124.485441 
L 19.802307 -130.307831 
L 20.351826 -135.917055 
L 20.901345 -141.259021 
L 21.450864 -146.282739 
L 22.000383 -150.941371 
L 22.549902 -155.193173 
L 23.099421 -159.002297 
L 23.64894 -162.33944 
L 24.198459 -165.182314 
L 24.747978 -167.515921 
L 25.297497 -169.332647 
L 25.847017 -170.63216 
L 26.396536 -171.421128 
L 26.946055 -171.712783 
L 27.495574 -171.526335 
L 28.045093 -170.886279 
L 28.594612 -169.821609 
L 29.144131 -168.364977 
L 29.69365 -166.551827 
L 30.243169 -164.419519 
L 30.792688 -162.006493 
L 31.342207 -159.351469 
L 31.891726 -156.492724 
L 32.441245 -153.46745 
L 32.990764 -150.311201 
L 33.540283 -147.057444 
L 34.089802 -143.737215 
L 34.639321 -140.378864 
L 35.18884 -137.007908 
L 35.738359 -133.646959 
L 36.287878 -130.315737 
L 36.837397 -127.03115 
L 37.386916 -123.807417 
L 37.936435 -120.656249 
L 38.485954 -117.587045 
L 39.035473 -114.607118 
L 39.584992 -111.721923 
L 40.134512 -108.935289 
L 40.684031 -106.249643 
L 41.23355 -103.66622 
L 41.783069 -101.185259 
L 42.332588 -98.806177 
L 42.882107 -96.527724 
L 43.431626 -94.348117 
L 43.981145 -92.26515 
L 44.530664 -90.276294 
L 45.080183 -88.378771 
L 45.629702 -86.569617 
L 46.179221 -84.845731 
L 46.72874 -83.203923 
L 47.278259 -81.640936 
L 47.827778 -80.153485 
L 48.377297 -78.738271 
L 48.926816 -77.392004 
L 49.476335 -76.111425 
L 50.025854 -74.893314 
L 50.575373 -73.734513 
L 51.124892 -72.631934 
L 51.674411 -71.582573 
L 52.22393 -70.583521 
L 52.773449 -69.631969 
L 53.322968 -68.725217 
L 53.872487 -67.860671 
L 54.422007 -67.035852 
L 54.971526 -66.248384 
L 55.521045 -65.495997 
L 56.070564 -64.776514 
L 56.620083 -64.087847 
L 57.169602 -63.427985 
L 57.719121 -62.794988 
L 58.26864 -62.186974 
L 58.818159 -61.602114 
L 59.367678 -61.038625 
L 59.917197 -60.49477 
L 60.466716 -59.968851 
L 61.016235 -59.459218 
L 61.565754 -58.964268 
L 62.115273 -58.482457 
L 62.664792 -58.012307 
L 63.214311 -57.552419 
L 63.76383 -57.101484 
L 64.313349 -56.658297 
L 64.862868 -56.221769 
L 65.412387 -55.790936 
L 65.961906 -55.364971 
L 66.511425 -54.943188 
L 67.060944 -54.525048 
L 67.610463 -54.110157 
L 68.159982 -53.698263 
L 68.709502 -53.289252 
L 69.259021 -52.883139 
L 69.80854 -52.480055 
L 70.358059 -52.080234 
L 70.907578 -51.684003 
L 71.457097 -51.291761 
L 72.006616 -50.903967 
L 72.556135 -50.521126 
L 73.105654 -50.143774 
L 73.655173 -49.772467 
L 74.204692 -49.40777 
L 74.754211 -49.050246 
L 75.30373 -48.700448 
L 75.853249 -48.358912 
L 76.402768 -48.026152 
L 76.952287 -47.702649 
L 77.501806 -47.388849 
L 78.051325 -47.085153 
L 78.600844 -46.791911 
L 79.150363 -46.509411 
L 79.699882 -46.237871 
L 80.249401 -45.977429 
L 80.79892 -45.72813 
L 81.348439 -45.489915 
L 81.897958 -45.262613 
L 82.447477 -45.045929 
L 82.996996 -44.839436 
L 83.546516 -44.642573 
L 84.096035 -44.454639 
L 84.645554 -44.2748 
L 85.195073 -44.102089 
L 85.744592 -43.935426 
L 86.294111 -43.773626 
L 86.84363 -43.615423 
L 87.393149 -43.459497 
L 87.942668 -43.304496 
L 88.492187 -43.149073 
L 89.041706 -42.991915 
L 89.591225 -42.831776 
L 90.140744 -42.66751 
L 90.690263 -42.4981 
L 91.239782 -42.322685 
L 91.789301 -42.140582 
L 92.33882 -41.951304 
L 92.888339 -41.754567 
L 93.437858 -41.550299 
L 93.987377 -41.338634 
L 94.536896 -41.119908 
L 95.086415 -40.89464 
L 95.635934 -40.663516 
L 96.185453 -40.427363 
L 96.734972 -40.187124 
L 97.284491 -39.943829 
L 97.834011 -39.698563 
L 98.38353 -39.45244 
L 98.933049 -39.206575 
L 99.482568 -38.962058 
L 100.032087 -38.719934 
L 100.581606 -38.481182 
L 101.131125 -38.246706 
L 101.680644 -38.017323 
L 102.230163 -37.793755 
L 102.779682 -37.576632 
L 103.329201 -37.36649 
L 103.87872 -37.163773 
L 104.428239 -36.968843 
L 104.977758 -36.781981 
L 105.527277 -36.603396 
L 106.076796 -36.433229 
L 106.626315 -36.27156 
L 107.175834 -36.118409 
L 107.725353 -35.973741 
L 108.274872 -35.837462 
L 108.824391 -35.709425 
L 109.37391 -35.589418 
L 109.923429 -35.477171 
L 110.472948 -35.372345 
L 111.022467 -35.274531 
L 111.571986 -35.183248 
L 112.121506 -35.097938 
L 112.671025 -35.017969 
L 113.220544 -34.942633 
L 113.770063 -34.871154 
L 114.319582 -34.802686 
L 114.869101 -34.736332 
L 115.41862 -34.671147 
L 115.968139 -34.606152 
L 116.517658 -34.540354 
L 117.067177 -34.472758 
L 117.616696 -34.402384 
L 118.166215 -34.328291 
L 118.715734 -34.249591 
L 119.265253 -34.165466 
L 119.814772 -34.075188 
L 120.364291 -33.97813 
L 120.91381 -33.873783 
L 121.463329 -33.76176 
L 122.012848 -33.641808 
L 122.562367 -33.513807 
L 123.111886 -33.377774 
L 123.661405 -33.233858 
L 124.210924 -33.082335 
L 124.760443 -32.923597 
L 125.309962 -32.758142 
L 125.859481 -32.586562 
L 126.409001 -32.409525 
L 126.95852 -32.227761 
L 127.508039 -32.042044 
L 128.057558 -31.853177 
L 128.607077 -31.661975 
L 129.156596 -31.469247 
L 129.706115 -31.275787 
L 130.255634 -31.082356 
L 130.805153 -30.889674 
L 131.354672 -30.698409 
L 131.904191 -30.509171 
L 132.45371 -30.322505 
L 133.003229 -30.138888 
L 133.552748 -29.958727 
L 134.102267 -29.782361 
L 134.651786 -29.610058 
L 135.201305 -29.442024 
L 135.750824 -29.278401 
L 136.300343 -29.119279 
L 136.849862 -28.964696 
L 137.399381 -28.814652 
L 137.9489 -28.66911 
L 138.498419 -28.528007 
L 139.047938 -28.391263 
L 139.597457 -28.258789 
L 140.146976 -28.130493 
L 140.696495 -28.006285 
L 141.246015 -27.886092 
L 141.795534 -27.769852 
L 142.345053 -27.657529 
L 142.894572 -27.549107 
L 143.444091 -27.444601 
L 143.99361 -27.344048 
L 144.543129 -27.247513 
L 145.092648 -27.155085 
L 145.642167 -27.066868 
L 146.191686 -26.982982 
L 146.741205 -26.903551 
L 147.290724 -26.828698 
L 147.840243 -26.758535 
L 148.389762 -26.693151 
L 148.939281 -26.632607 
L 149.4888 -26.576919 
L 150.038319 -26.526054 
L 150.587838 -26.479917 
L 151.137357 -26.438345 
L 151.686876 -26.401102 
L 152.236395 -26.367869 
L 152.785914 -26.338246 
L 153.335433 -26.311753 
L 153.884952 -26.28783 
L 154.434471 -26.265842 
L 154.98399 -26.245092 
L 155.53351 -26.224826 
L 156.083029 -26.20425 
L 156.632548 -26.182544 
L 157.182067 -26.158879 
L 157.731586 -26.132435 
L 158.281105 -26.10242 
L 158.830624 -26.068084 
L 159.380143 -26.028742 
L 159.929662 -25.983786 
L 160.479181 -25.932702 
L 161.0287 -25.875078 
L 161.578219 -25.810615 
L 162.127738 -25.739135 
L 162.677257 -25.66058 
L 163.226776 -25.575017 
L 163.776295 -25.482629 
L 164.325814 -25.383717 
L 164.875333 -25.278687 
L 165.424852 -25.168042 
L 165.974371 -25.052371 
L 166.52389 -24.932335 
L 167.073409 -24.808658 
L 167.622928 -24.682107 
L 168.172447 -24.553483 
L 168.721966 -24.423606 
L 169.271485 -24.293302 
L 169.821005 -24.163387 
L 170.370524 -24.03466 
L 170.920043 -23.907889 
L 171.469562 -23.783799 
L 172.019081 -23.663068 
L 172.5686 -23.546311 
L 173.118119 -23.434081 
L 173.667638 -23.326857 
L 174.217157 -23.225043 
L 174.766676 -23.128963 
L 175.316195 -23.038863 
L 175.865714 -22.954905 
L 176.415233 -22.877175 
L 176.964752 -22.805682 
L 177.514271 -22.740362 
L 178.06379 -22.681088 
L 178.613309 -22.627672 
L 179.162828 -22.579873 
L 179.712347 -22.537406 
L 180.261866 -22.499951 
L 180.811385 -22.467157 
L 181.360904 -22.438654 
L 181.910423 -22.414057 
L 182.459942 -22.392974 
L 183.009461 -22.375011 
L 183.55898 -22.359777 
L 184.108499 -22.346887 
L 184.658019 -22.335966 
L 185.207538 -22.326652 
L 185.757057 -22.318598 
L 186.306576 -22.311473 
L 186.856095 -22.304962 
L 187.405614 -22.298769 
L 187.955133 -22.29262 
L 188.504652 -22.28626 
L 189.054171 -22.279456 
L 189.60369 -22.271999 
L 190.153209 -22.263704 
L 190.702728 -22.254409 
L 191.252247 -22.24398 
L 191.801766 -22.232306 
L 192.351285 -22.219302 
L 192.900804 -22.204908 
L 193.450323 -22.189082 
L 193.999842 -22.171807 
L 194.549361 -22.153081 
L 195.09888 -22.132916 
L 195.648399 -22.111337 
L 196.197918 -22.088375 
L 196.747437 -22.064069 
L 197.296956 -22.038457 
L 197.846475 -22.011578 
L 198.395994 -21.98347 
L 198.945514 -21.954166 
L 199.495033 -21.923696 
L 200.044552 -21.892088 
L 200.594071 -21.859369 
L 201.14359 -21.825562 
L 201.693109 -21.790698 
L 202.242628 -21.75481 
L 202.792147 -21.717941 
L 203.341666 -21.680143 
L 203.891185 -21.641484 
L 204.440704 -21.602049 
L 204.990223 -21.561939 
L 205.539742 -21.521275 
L 206.089261 -21.480197 
L 206.63878 -21.438866 
L 207.188299 -21.397456 
L 207.737818 -21.35616 
L 208.287337 -21.315179 
L 208.836856 -21.274724 
L 209.386375 -21.235008 
L 209.935894 -21.196241 
L 210.485413 -21.158629 
L 211.034932 -21.122363 
L 211.584451 -21.087617 
L 212.13397 -21.054545 
L 212.683489 -21.023273 
L 213.233009 -20.9939 
L 213.782528 -20.966491 
L 214.332047 -20.941079 
L 214.881566 -20.917663 
L 215.431085 -20.896208 
L 215.980604 -20.876648 
L 216.530123 -20.858886 
L 217.079642 -20.842801 
L 217.629161 -20.828247 
L 218.17868 -20.815063 
L 218.728199 -20.803075 
L 219.277718 -20.7921 
L 219.827237 -20.781954 
L 220.376756 -20.772455 
L 220.926275 -20.763431 
L 221.475794 -20.754719 
L 222.025313 -20.746172 
L 222.574832 -20.737662 
L 223.124351 -20.729082 
L 223.67387 -20.720346 
L 224.223389 -20.711391 
L 224.772908 -20.702176 
L 225.322427 -20.692682 
L 225.871946 -20.682909 
L 226.421465 -20.672877 
L 226.970984 -20.66262 
L 227.520504 -20.652187 
L 228.070023 -20.641636 
L 228.619542 -20.631033 
L 229.169061 -20.620449 
L 229.71858 -20.609956 
L 230.268099 -20.599627 
L 230.817618 -20.589531 
L 231.367137 -20.579734 
L 231.916656 -20.570294 
L 232.466175 -20.561262 
L 233.015694 -20.552683 
L 233.565213 -20.54459 
L 234.114732 -20.537008 
L 234.664251 -20.529956 
L 235.21377 -20.52344 
L 235.763289 -20.51746 
L 236.312808 -20.512011 
L 236.862327 -20.507078 
L 237.411846 -20.502642 
L 237.961365 -20.498679 
L 238.510884 -20.495163 
L 239.060403 -20.492065 
L 239.609922 -20.489351 
L 240.159441 -20.486991 
L 240.70896 -20.484952 
L 241.258479 -20.483201 
L 241.807998 -20.481708 
L 242.357518 -20.480443 
L 242.907037 -20.479378 
L 243.456556 -20.478488 
L 244.006075 -20.477749 
L 244.555594 -20.477138 
L 245.105113 -20.476638 
L 245.654632 -20.47623 
L 246.204151 -20.475901 
L 246.75367 -20.475636 
L 247.303189 -20.475424 
L 247.852708 -20.475256 
L 248.402227 -20.475124 
L 248.951746 -20.47502 
L 249.501265 -20.47494 
L 250.050784 -20.474878 
L 250.600303 -20.47483 
L 251.149822 -20.474793 
L 251.699341 -20.474766 
L 252.24886 -20.474745 
L 252.798379 -20.474729 
L 253.347898 -20.474718 
L 253.897417 -20.474709 
L 254.446936 -20.474703 
L 254.996455 -20.474699 
L 255.545974 -20.474695 
L 256.095493 -20.474693 
L 256.645013 -20.474691 
L 257.194532 -20.47469 
L 257.744051 -20.474689 
L 258.29357 -20.474689 
L 258.843089 -20.474688 
L 259.392608 -20.474688 
L 259.942127 -20.474688 
L 260.491646 -20.474688 
L 261.041165 -20.474688 
L 261.590684 -20.474688 
L 262.140203 -20.474688 
L 262.689722 -20.474688 
L 263.239241 -20.474688 
L 263.78876 -20.474688 
L 264.338279 -20.474688 
L 264.887798 -20.474688 
L 265.437317 -20.474688 
L 265.986836 -20.474688 
L 266.536355 -20.474688 
L 267.085874 -20.474688 
L 267.635393 -20.474688 
L 268.184912 -20.474688 
L 268.734431 -20.474688 
L 269.28395 -20.474688 
L 269.833469 -20.474688 
L 270.382988 -20.474688 
L 270.932508 -20.474688 
L 271.482027 -20.474688 
L 272.031546 -20.474688 
L 272.581065 -20.474688 
L 273.130584 -20.474688 
L 273.680103 -20.474688 
L 274.229622 -20.474688 
L 274.779141 -20.474688 
L 275.32866 -20.474688 
L 275.878179 -20.474688 
L 276.427698 -20.474688 
L 276.977217 -20.474688 
L 277.526736 -20.474688 
L 278.076255 -20.474688 
L 278.625774 -20.474688 
L 279.175293 -20.474688 
L 279.724812 -20.474688 
L 280.274331 -20.474687 
L 280.82385 -20.474687 
L 281.373369 -20.474687 
L 281.922888 -20.474687 
L 282.472407 -20.474687 
L 283.021926 -20.474687 
L 283.571445 -20.474687 
L 284.120964 -20.474687 
L 284.670483 -20.474687 
L 285.220003 -20.474687 
L 285.769522 -20.474687 
L 286.319041 -20.474687 
L 286.86856 -20.474687 
L 287.418079 -20.474687 
L 287.967598 -20.474687 
L 288.517117 -20.474687 
L 289.066636 -20.474687 
L 289.616155 -20.474687 
L 290.165674 -20.474687 
L 290.715193 -20.474687 
L 291.264712 -20.474687 
L 291.814231 -20.474687 
L 292.36375 -20.474687 
L 292.36375 -20.474687 
L 292.36375 -20.474687 
L 291.814231 -20.474687 
L 291.264712 -20.474687 
L 290.715193 -20.474687 
L 290.165674 -20.474687 
L 289.616155 -20.474687 
L 289.066636 -20.474687 
L 288.517117 -20.474687 
L 287.967598 -20.474687 
L 287.418079 -20.474687 
L 286.86856 -20.474687 
L 286.319041 -20.474687 
L 285.769522 -20.474687 
L 285.220003 -20.474687 
L 284.670483 -20.474687 
L 284.120964 -20.474687 
L 283.571445 -20.474687 
L 283.021926 -20.474687 
L 282.472407 -20.474687 
L 281.922888 -20.474687 
L 281.373369 -20.474687 
L 280.82385 -20.474687 
L 280.274331 -20.474687 
L 279.724812 -20.474687 
L 279.175293 -20.474687 
L 278.625774 -20.474687 
L 278.076255 -20.474687 
L 277.526736 -20.474687 
L 276.977217 -20.474687 
L 276.427698 -20.474687 
L 275.878179 -20.474687 
L 275.32866 -20.474687 
L 274.779141 -20.474687 
L 274.229622 -20.474687 
L 273.680103 -20.474687 
L 273.130584 -20.474687 
L 272.581065 -20.474687 
L 272.031546 -20.474687 
L 271.482027 -20.474687 
L 270.932508 -20.474687 
L 270.382988 -20.474687 
L 269.833469 -20.474687 
L 269.28395 -20.474687 
L 268.734431 -20.474687 
L 268.184912 -20.474687 
L 267.635393 -20.474687 
L 267.085874 -20.474687 
L 266.536355 -20.474687 
L 265.986836 -20.474687 
L 265.437317 -20.474687 
L 264.887798 -20.474687 
L 264.338279 -20.474687 
L 263.78876 -20.474687 
L 263.239241 -20.474687 
L 262.689722 -20.474687 
L 262.140203 -20.474687 
L 261.590684 -20.474687 
L 261.041165 -20.474687 
L 260.491646 -20.474687 
L 259.942127 -20.474687 
L 259.392608 -20.474687 
L 258.843089 -20.474687 
L 258.29357 -20.474687 
L 257.744051 -20.474687 
L 257.194532 -20.474687 
L 256.645013 -20.474687 
L 256.095493 -20.474687 
L 255.545974 -20.474687 
L 254.996455 -20.474687 
L 254.446936 -20.474687 
L 253.897417 -20.474687 
L 253.347898 -20.474687 
L 252.798379 -20.474687 
L 252.24886 -20.474687 
L 251.699341 -20.474687 
L 251.149822 -20.474687 
L 250.600303 -20.474687 
L 250.050784 -20.474687 
L 249.501265 -20.474687 
L 248.951746 -20.474687 
L 248.402227 -20.474687 
L 247.852708 -20.474687 
L 247.303189 -20.474687 
L 246.75367 -20.474687 
L 246.204151 -20.474687 
L 245.654632 -20.474687 
L 245.105113 -20.474687 
L 244.555594 -20.474687 
L 244.006075 -20.474687 
L 243.456556 -20.474687 
L 242.907037 -20.474687 
L 242.357518 -20.474687 
L 241.807998 -20.474687 
L 241.258479 -20.474687 
L 240.70896 -20.474687 
L 240.159441 -20.474687 
L 239.609922 -20.474687 
L 239.060403 -20.474687 
L 238.510884 -20.474687 
L 237.961365 -20.474687 
L 237.411846 -20.474687 
L 236.862327 -20.474687 
L 236.312808 -20.474687 
L 235.763289 -20.474687 
L 235.21377 -20.474687 
L 234.664251 -20.474687 
L 234.114732 -20.474687 
L 233.565213 -20.474687 
L 233.015694 -20.474687 
L 232.466175 -20.474687 
L 231.916656 -20.474687 
L 231.367137 -20.474687 
L 230.817618 -20.474687 
L 230.268099 -20.474687 
L 229.71858 -20.474687 
L 229.169061 -20.474687 
L 228.619542 -20.474687 
L 228.070023 -20.474687 
L 227.520504 -20.474687 
L 226.970984 -20.474687 
L 226.421465 -20.474687 
L 225.871946 -20.474687 
L 225.322427 -20.474687 
L 224.772908 -20.474687 
L 224.223389 -20.474687 
L 223.67387 -20.474687 
L 223.124351 -20.474687 
L 222.574832 -20.474687 
L 222.025313 -20.474687 
L 221.475794 -20.474687 
L 220.926275 -20.474687 
L 220.376756 -20.474687 
L 219.827237 -20.474687 
L 219.277718 -20.474687 
L 218.728199 -20.474687 
L 218.17868 -20.474687 
L 217.629161 -20.474687 
L 217.079642 -20.474687 
L 216.530123 -20.474687 
L 215.980604 -20.474687 
L 215.431085 -20.474687 
L 214.881566 -20.474687 
L 214.332047 -20.474687 
L 213.782528 -20.474687 
L 213.233009 -20.474687 
L 212.683489 -20.474687 
L 212.13397 -20.474687 
L 211.584451 -20.474687 
L 211.034932 -20.474687 
L 210.485413 -20.474687 
L 209.935894 -20.474687 
L 209.386375 -20.474687 
L 208.836856 -20.474687 
L 208.287337 -20.474687 
L 207.737818 -20.474687 
L 207.188299 -20.474687 
L 206.63878 -20.474687 
L 206.089261 -20.474687 
L 205.539742 -20.474687 
L 204.990223 -20.474687 
L 204.440704 -20.474687 
L 203.891185 -20.474687 
L 203.341666 -20.474687 
L 202.792147 -20.474687 
L 202.242628 -20.474687 
L 201.693109 -20.474687 
L 201.14359 -20.474687 
L 200.594071 -20.474687 
L 200.044552 -20.474687 
L 199.495033 -20.474687 
L 198.945514 -20.474687 
L 198.395994 -20.474687 
L 197.846475 -20.474687 
L 197.296956 -20.474687 
L 196.747437 -20.474687 
L 196.197918 -20.474687 
L 195.648399 -20.474687 
L 195.09888 -20.474687 
L 194.549361 -20.474687 
L 193.999842 -20.474687 
L 193.450323 -20.474687 
L 192.900804 -20.474687 
L 192.351285 -20.474687 
L 191.801766 -20.474687 
L 191.252247 -20.474687 
L 190.702728 -20.474687 
L 190.153209 -20.474687 
L 189.60369 -20.474687 
L 189.054171 -20.474687 
L 188.504652 -20.474687 
L 187.955133 -20.474687 
L 187.405614 -20.474687 
L 186.856095 -20.474687 
L 186.306576 -20.474687 
L 185.757057 -20.474687 
L 185.207538 -20.474687 
L 184.658019 -20.474687 
L 184.108499 -20.474687 
L 183.55898 -20.474687 
L 183.009461 -20.474687 
L 182.459942 -20.474687 
L 181.910423 -20.474687 
L 181.360904 -20.474687 
L 180.811385 -20.474687 
L 180.261866 -20.474687 
L 179.712347 -20.474687 
L 179.162828 -20.474687 
L 178.613309 -20.474687 
L 178.06379 -20.474687 
L 177.514271 -20.474687 
L 176.964752 -20.474687 
L 176.415233 -20.474687 
L 175.865714 -20.474687 
L 175.316195 -20.474687 
L 174.766676 -20.474687 
L 174.217157 -20.474687 
L 173.667638 -20.474687 
L 173.118119 -20.474687 
L 172.5686 -20.474687 
L 172.019081 -20.474687 
L 171.469562 -20.474687 
L 170.920043 -20.474687 
L 170.370524 -20.474687 
L 169.821005 -20.474687 
L 169.271485 -20.474687 
L 168.721966 -20.474687 
L 168.172447 -20.474687 
L 167.622928 -20.474687 
L 167.073409 -20.474687 
L 166.52389 -20.474687 
L 165.974371 -20.474687 
L 165.424852 -20.474687 
L 164.875333 -20.474687 
L 164.325814 -20.474687 
L 163.776295 -20.474687 
L 163.226776 -20.474687 
L 162.677257 -20.474687 
L 162.127738 -20.474687 
L 161.578219 -20.474687 
L 161.0287 -20.474687 
L 160.479181 -20.474687 
L 159.929662 -20.474687 
L 159.380143 -20.474687 
L 158.830624 -20.474687 
L 158.281105 -20.474687 
L 157.731586 -20.474687 
L 157.182067 -20.474687 
L 156.632548 -20.474687 
L 156.083029 -20.474687 
L 155.53351 -20.474687 
L 154.98399 -20.474687 
L 154.434471 -20.474687 
L 153.884952 -20.474687 
L 153.335433 -20.474687 
L 152.785914 -20.474687 
L 152.236395 -20.474687 
L 151.686876 -20.474687 
L 151.137357 -20.474687 
L 150.587838 -20.474687 
L 150.038319 -20.474687 
L 149.4888 -20.474687 
L 148.939281 -20.474687 
L 148.389762 -20.474687 
L 147.840243 -20.474687 
L 147.290724 -20.474687 
L 146.741205 -20.474687 
L 146.191686 -20.474687 
L 145.642167 -20.474687 
L 145.092648 -20.474687 
L 144.543129 -20.474687 
L 143.99361 -20.474687 
L 143.444091 -20.474687 
L 142.894572 -20.474687 
L 142.345053 -20.474687 
L 141.795534 -20.474687 
L 141.246015 -20.474687 
L 140.696495 -20.474687 
L 140.146976 -20.474687 
L 139.597457 -20.474687 
L 139.047938 -20.474687 
L 138.498419 -20.474687 
L 137.9489 -20.474687 
L 137.399381 -20.474687 
L 136.849862 -20.474687 
L 136.300343 -20.474687 
L 135.750824 -20.474687 
L 135.201305 -20.474687 
L 134.651786 -20.474687 
L 134.102267 -20.474687 
L 133.552748 -20.474687 
L 133.003229 -20.474687 
L 132.45371 -20.474687 
L 131.904191 -20.474687 
L 131.354672 -20.474687 
L 130.805153 -20.474687 
L 130.255634 -20.474687 
L 129.706115 -20.474687 
L 129.156596 -20.474687 
L 128.607077 -20.474687 
L 128.057558 -20.474687 
L 127.508039 -20.474687 
L 126.95852 -20.474687 
L 126.409001 -20.474687 
L 125.859481 -20.474687 
L 125.309962 -20.474687 
L 124.760443 -20.474687 
L 124.210924 -20.474687 
L 123.661405 -20.474687 
L 123.111886 -20.474687 
L 122.562367 -20.474687 
L 122.012848 -20.474687 
L 121.463329 -20.474687 
L 120.91381 -20.474687 
L 120.364291 -20.474687 
L 119.814772 -20.474687 
L 119.265253 -20.474687 
L 118.715734 -20.474687 
L 118.166215 -20.474687 
L 117.616696 -20.474687 
L 117.067177 -20.474687 
L 116.517658 -20.474687 
L 115.968139 -20.474687 
L 115.41862 -20.474687 
L 114.869101 -20.474687 
L 114.319582 -20.474687 
L 113.770063 -20.474687 
L 113.220544 -20.474687 
L 112.671025 -20.474687 
L 112.121506 -20.474687 
L 111.571986 -20.474687 
L 111.022467 -20.474687 
L 110.472948 -20.474687 
L 109.923429 -20.474687 
L 109.37391 -20.474687 
L 108.824391 -20.474687 
L 108.274872 -20.474687 
L 107.725353 -20.474687 
L 107.175834 -20.474687 
L 106.626315 -20.474687 
L 106.076796 -20.474687 
L 105.527277 -20.474687 
L 104.977758 -20.474687 
L 104.428239 -20.474687 
L 103.87872 -20.474687 
L 103.329201 -20.474687 
L 102.779682 -20.474687 
L 102.230163 -20.474687 
L 101.680644 -20.474687 
L 101.131125 -20.474687 
L 100.581606 -20.474687 
L 100.032087 -20.474687 
L 99.482568 -20.474687 
L 98.933049 -20.474687 
L 98.38353 -20.474687 
L 97.834011 -20.474687 
L 97.284491 -20.474687 
L 96.734972 -20.474687 
L 96.185453 -20.474687 
L 95.635934 -20.474687 
L 95.086415 -20.474687 
L 94.536896 -20.474687 
L 93.987377 -20.474687 
L 93.437858 -20.474687 
L 92.888339 -20.474687 
L 92.33882 -20.474687 
L 91.789301 -20.474687 
L 91.239782 -20.474687 
L 90.690263 -20.474687 
L 90.140744 -20.474687 
L 89.591225 -20.474687 
L 89.041706 -20.474687 
L 88.492187 -20.474687 
L 87.942668 -20.474687 
L 87.393149 -20.474687 
L 86.84363 -20.474687 
L 86.294111 -20.474687 
L 85.744592 -20.474687 
L 85.195073 -20.474687 
L 84.645554 -20.474687 
L 84.096035 -20.474687 
L 83.546516 -20.474687 
L 82.996996 -20.474687 
L 82.447477 -20.474687 
L 81.897958 -20.474687 
L 81.348439 -20.474687 
L 80.79892 -20.474687 
L 80.249401 -20.474687 
L 79.699882 -20.474687 
L 79.150363 -20.474687 
L 78.600844 -20.474687 
L 78.051325 -20.474687 
L 77.501806 -20.474687 
L 76.952287 -20.474687 
L 76.402768 -20.474687 
L 75.853249 -20.474687 
L 75.30373 -20.474687 
L 74.754211 -20.474687 
L 74.204692 -20.474687 
L 73.655173 -20.474687 
L 73.105654 -20.474687 
L 72.556135 -20.474687 
L 72.006616 -20.474687 
L 71.457097 -20.474687 
L 70.907578 -20.474687 
L 70.358059 -20.474687 
L 69.80854 -20.474687 
L 69.259021 -20.474687 
L 68.709502 -20.474687 
L 68.159982 -20.474687 
L 67.610463 -20.474687 
L 67.060944 -20.474687 
L 66.511425 -20.474687 
L 65.961906 -20.474687 
L 65.412387 -20.474687 
L 64.862868 -20.474687 
L 64.313349 -20.474687 
L 63.76383 -20.474687 
L 63.214311 -20.474687 
L 62.664792 -20.474687 
L 62.115273 -20.474687 
L 61.565754 -20.474687 
L 61.016235 -20.474687 
L 60.466716 -20.474687 
L 59.917197 -20.474687 
L 59.367678 -20.474687 
L 58.818159 -20.474687 
L 58.26864 -20.474687 
L 57.719121 -20.474687 
L 57.169602 -20.474687 
L 56.620083 -20.474687 
L 56.070564 -20.474687 
L 55.521045 -20.474687 
L 54.971526 -20.474687 
L 54.422007 -20.474687 
L 53.872487 -20.474687 
L 53.322968 -20.474687 
L 52.773449 -20.474687 
L 52.22393 -20.474687 
L 51.674411 -20.474687 
L 51.124892 -20.474687 
L 50.575373 -20.474687 
L 50.025854 -20.474687 
L 49.476335 -20.474687 
L 48.926816 -20.474687 
L 48.377297 -20.474687 
L 47.827778 -20.474687 
L 47.278259 -20.474687 
L 46.72874 -20.474687 
L 46.179221 -20.474687 
L 45.629702 -20.474687 
L 45.080183 -20.474687 
L 44.530664 -20.474687 
L 43.981145 -20.474687 
L 43.431626 -20.474687 
L 42.882107 -20.474687 
L 42.332588 -20.474687 
L 41.783069 -20.474687 
L 41.23355 -20.474687 
L 40.684031 -20.474687 
L 40.134512 -20.474687 
L 39.584992 -20.474687 
L 39.035473 -20.474687 
L 38.485954 -20.474687 
L 37.936435 -20.474687 
L 37.386916 -20.474687 
L 36.837397 -20.474687 
L 36.287878 -20.474687 
L 35.738359 -20.474687 
L 35.18884 -20.474687 
L 34.639321 -20.474687 
L 34.089802 -20.474687 
L 33.540283 -20.474687 
L 32.990764 -20.474687 
L 32.441245 -20.474687 
L 31.891726 -20.474687 
L 31.342207 -20.474687 
L 30.792688 -20.474687 
L 30.243169 -20.474687 
L 29.69365 -20.474687 
L 29.144131 -20.474687 
L 28.594612 -20.474687 
L 28.045093 -20.474687 
L 27.495574 -20.474687 
L 26.946055 -20.474687 
L 26.396536 -20.474687 
L 25.847017 -20.474687 
L 25.297497 -20.474687 
L 24.747978 -20.474687 
L 24.198459 -20.474687 
L 23.64894 -20.474687 
L 23.099421 -20.474687 
L 22.549902 -20.474687 
L 22.000383 -20.474687 
L 21.450864 -20.474687 
L 20.901345 -20.474687 
L 20.351826 -20.474687 
L 19.802307 -20.474687 
L 19.252788 -20.474687 
L 18.703269 -20.474687 
L 18.15375 -20.474687 
z
" style="stroke: #d4726a; stroke-opacity: 0.4"/>
    </defs>
    <g clip-path="url(#pa4449de670)">
     <use xlink:href="#m2b0e2e89f4" x="0" y="186.474687" style="fill: #d4726a; fill-opacity: 0.4; stroke: #d4726a; stroke-opacity: 0.4"/>
    </g>
   </g>
   <g id="matplotlib.axis_1">
    <g id="xtick_1">
     <g id="line2d_1">
      <defs>
       <path id="m4414a6abbc" d="M 0 0 
L 0 3 
" style="stroke: #000000; stroke-width: 0.8"/>
      </defs>
      <g>
       <use xlink:href="#m4414a6abbc" x="18.15375" y="166" style="stroke: #000000; stroke-width: 0.8"/>
      </g>
     </g>
     <g id="text_1">
      <!-- 0.0 -->
      <g transform="translate(12.587656 177.818906) scale(0.07 -0.07)">
       <defs>
        <path id="DejaVuSans-30" d="M 2034 4250 
Q 1547 4250 1301 3770 
Q 1056 3291 1056 2328 
Q 1056 1369 1301 889 
Q 1547 409 2034 409 
Q 2525 409 2770 889 
Q 3016 1369 3016 2328 
Q 3016 3291 2770 3770 
Q 2525 4250 2034 4250 
z
M 2034 4750 
Q 2819 4750 3233 4129 
Q 3647 3509 3647 2328 
Q 3647 1150 3233 529 
Q 2819 -91 2034 -91 
Q 1250 -91 836 529 
Q 422 1150 422 2328 
Q 422 3509 836 4129 
Q 1250 4750 2034 4750 
z
" transform="scale(0.015625)"/>
        <path id="DejaVuSans-2e" d="M 684 794 
L 1344 794 
L 1344 0 
L 684 0 
L 684 794 
z
" transform="scale(0.015625)"/>
       </defs>
       <use xlink:href="#DejaVuSans-30"/>
       <use xlink:href="#DejaVuSans-2e" x="63.623047"/>
       <use xlink:href="#DejaVuSans-30" x="95.410156"/>
      </g>
     </g>
    </g>
    <g id="xtick_2">
     <g id="line2d_2">
      <g>
       <use xlink:href="#m4414a6abbc" x="72.99575" y="166" style="stroke: #000000; stroke-width: 0.8"/>
      </g>
     </g>
     <g id="text_2">
      <!-- 0.2 -->
      <g transform="translate(67.429656 177.818906) scale(0.07 -0.07)">
       <defs>
        <path id="DejaVuSans-32" d="M 1228 531 
L 3431 531 
L 3431 0 
L 469 0 
L 469 531 
Q 828 903 1448 1529 
Q 2069 2156 2228 2338 
Q 2531 2678 2651 2914 
Q 2772 3150 2772 3378 
Q 2772 3750 2511 3984 
Q 2250 4219 1831 4219 
Q 1534 4219 1204 4116 
Q 875 4013 500 3803 
L 500 4441 
Q 881 4594 1212 4672 
Q 1544 4750 1819 4750 
Q 2544 4750 2975 4387 
Q 3406 4025 3406 3419 
Q 3406 3131 3298 2873 
Q 3191 2616 2906 2266 
Q 2828 2175 2409 1742 
Q 1991 1309 1228 531 
z
" transform="scale(0.015625)"/>
       </defs>
       <use xlink:href="#DejaVuSans-30"/>
       <use xlink:href="#DejaVuSans-2e" x="63.623047"/>
       <use xlink:href="#DejaVuSans-32" x="95.410156"/>
      </g>
     </g>
    </g>
    <g id="xtick_3">
     <g id="line2d_3">
      <g>
       <use xlink:href="#m4414a6abbc" x="127.83775" y="166" style="stroke: #000000; stroke-width: 0.8"/>
      </g>
     </g>
     <g id="text_3">
      <!-- 0.4 -->
      <g transform="translate(122.271656 177.818906) scale(0.07 -0.07)">
       <defs>
        <path id="DejaVuSans-34" d="M 2419 4116 
L 825 1625 
L 2419 1625 
L 2419 4116 
z
M 2253 4666 
L 3047 4666 
L 3047 1625 
L 3713 1625 
L 3713 1100 
L 3047 1100 
L 3047 0 
L 2419 0 
L 2419 1100 
L 313 1100 
L 313 1709 
L 2253 4666 
z
" transform="scale(0.015625)"/>
       </defs>
       <use xlink:href="#DejaVuSans-30"/>
       <use xlink:href="#DejaVuSans-2e" x="63.623047"/>
       <use xlink:href="#DejaVuSans-34" x="95.410156"/>
      </g>
     </g>
    </g>
    <g id="xtick_4">
     <g id="line2d_4">
      <g>
       <use xlink:href="#m4414a6abbc" x="182.67975" y="166" style="stroke: #000000; stroke-width: 0.8"/>
      </g>
     </g>
     <g id="text_4">
      <!-- 0.6 -->
      <g transform="translate(177.113656 177.818906) scale(0.07 -0.07)">
       <defs>
        <path id="DejaVuSans-36" d="M 2113 2584 
Q 1688 2584 1439 2293 
Q 1191 2003 1191 1497 
Q 1191 994 1439 701 
Q 1688 409 2113 409 
Q 2538 409 2786 701 
Q 3034 994 3034 1497 
Q 3034 2003 2786 2293 
Q 2538 2584 2113 2584 
z
M 3366 4563 
L 3366 3988 
Q 3128 4100 2886 4159 
Q 2644 4219 2406 4219 
Q 1781 4219 1451 3797 
Q 1122 3375 1075 2522 
Q 1259 2794 1537 2939 
Q 1816 3084 2150 3084 
Q 2853 3084 3261 2657 
Q 3669 2231 3669 1497 
Q 3669 778 3244 343 
Q 2819 -91 2113 -91 
Q 1303 -91 875 529 
Q 447 1150 447 2328 
Q 447 3434 972 4092 
Q 1497 4750 2381 4750 
Q 2619 4750 2861 4703 
Q 3103 4656 3366 4563 
z
" transform="scale(0.015625)"/>
       </defs>
       <use xlink:href="#DejaVuSans-30"/>
       <use xlink:href="#DejaVuSans-2e" x="63.623047"/>
       <use xlink:href="#DejaVuSans-36" x="95.410156"/>
      </g>
     </g>
    </g>
    <g id="xtick_5">
     <g id="line2d_5">
      <g>
       <use xlink:href="#m4414a6abbc" x="237.52175" y="166" style="stroke: #000000; stroke-width: 0.8"/>
      </g>
     </g>
     <g id="text_5">
      <!-- 0.8 -->
      <g transform="translate(231.955656 177.818906) scale(0.07 -0.07)">
       <defs>
        <path id="DejaVuSans-38" d="M 2034 2216 
Q 1584 2216 1326 1975 
Q 1069 1734 1069 1313 
Q 1069 891 1326 650 
Q 1584 409 2034 409 
Q 2484 409 2743 651 
Q 3003 894 3003 1313 
Q 3003 1734 2745 1975 
Q 2488 2216 2034 2216 
z
M 1403 2484 
Q 997 2584 770 2862 
Q 544 3141 544 3541 
Q 544 4100 942 4425 
Q 1341 4750 2034 4750 
Q 2731 4750 3128 4425 
Q 3525 4100 3525 3541 
Q 3525 3141 3298 2862 
Q 3072 2584 2669 2484 
Q 3125 2378 3379 2068 
Q 3634 1759 3634 1313 
Q 3634 634 3220 271 
Q 2806 -91 2034 -91 
Q 1263 -91 848 271 
Q 434 634 434 1313 
Q 434 1759 690 2068 
Q 947 2378 1403 2484 
z
M 1172 3481 
Q 1172 3119 1398 2916 
Q 1625 2713 2034 2713 
Q 2441 2713 2670 2916 
Q 2900 3119 2900 3481 
Q 2900 3844 2670 4047 
Q 2441 4250 2034 4250 
Q 1625 4250 1398 4047 
Q 1172 3844 1172 3481 
z
" transform="scale(0.015625)"/>
       </defs>
       <use xlink:href="#DejaVuSans-30"/>
       <use xlink:href="#DejaVuSans-2e" x="63.623047"/>
       <use xlink:href="#DejaVuSans-38" x="95.410156"/>
      </g>
     </g>
    </g>
    <g id="xtick_6">
     <g id="line2d_6">
      <g>
       <use xlink:href="#m4414a6abbc" x="292.36375" y="166" style="stroke: #000000; stroke-width: 0.8"/>
      </g>
     </g>
     <g id="text_6">
      <!-- 1.0 -->
      <g transform="translate(286.797656 177.818906) scale(0.07 -0.07)">
       <defs>
        <path id="DejaVuSans-31" d="M 794 531 
L 1825 531 
L 1825 4091 
L 703 3866 
L 703 4441 
L 1819 4666 
L 2450 4666 
L 2450 531 
L 3481 531 
L 3481 0 
L 794 0 
L 794 531 
z
" transform="scale(0.015625)"/>
       </defs>
       <use xlink:href="#DejaVuSans-31"/>
       <use xlink:href="#DejaVuSans-2e" x="63.623047"/>
       <use xlink:href="#DejaVuSans-30" x="95.410156"/>
      </g>
     </g>
    </g>
   </g>
   <g id="matplotlib.axis_2">
    <g id="ytick_1">
     <g id="line2d_7">
      <defs>
       <path id="m319d848f3a" d="M 0 0 
L -3 0 
" style="stroke: #000000; stroke-width: 0.8"/>
      </defs>
      <g>
       <use xlink:href="#m319d848f3a" x="18.15375" y="166" style="stroke: #000000; stroke-width: 0.8"/>
      </g>
     </g>
     <g id="text_7">
      <!-- 0 -->
      <g transform="translate(7.2 168.659453) scale(0.07 -0.07)">
       <use xlink:href="#DejaVuSans-30"/>
      </g>
     </g>
    </g>
    <g id="ytick_2">
     <g id="line2d_8">
      <g>
       <use xlink:href="#m319d848f3a" x="18.15375" y="120.281692" style="stroke: #000000; stroke-width: 0.8"/>
      </g>
     </g>
     <g id="text_8">
      <!-- 2 -->
      <g transform="translate(7.2 122.941145) scale(0.07 -0.07)">
       <use xlink:href="#DejaVuSans-32"/>
      </g>
     </g>
    </g>
    <g id="ytick_3">
     <g id="line2d_9">
      <g>
       <use xlink:href="#m319d848f3a" x="18.15375" y="74.563383" style="stroke: #000000; stroke-width: 0.8"/>
      </g>
     </g>
     <g id="text_9">
      <!-- 4 -->
      <g transform="translate(7.2 77.222836) scale(0.07 -0.07)">
       <use xlink:href="#DejaVuSans-34"/>
      </g>
     </g>
    </g>
    <g id="ytick_4">
     <g id="line2d_10">
      <g>
       <use xlink:href="#m319d848f3a" x="18.15375" y="28.845075" style="stroke: #000000; stroke-width: 0.8"/>
      </g>
     </g>
     <g id="text_10">
      <!-- 6 -->
      <g transform="translate(7.2 31.504528) scale(0.07 -0.07)">
       <use xlink:href="#DejaVuSans-36"/>
      </g>
     </g>
    </g>
   </g>
   <g id="line2d_11">
    <path d="M 18.15375 74.048379 
L 20.351826 50.557632 
L 22.000383 35.533316 
L 23.099421 27.47239 
L 24.198459 21.292374 
L 24.747978 18.958767 
L 25.297497 17.142041 
L 25.847017 15.842528 
L 26.396536 15.05356 
L 26.946055 14.761905 
L 27.495574 14.948353 
L 28.045093 15.588409 
L 28.594612 16.653079 
L 29.144131 18.10971 
L 30.243169 22.055168 
L 31.342207 27.123219 
L 32.990764 36.163487 
L 39.584992 74.752765 
L 41.23355 82.808467 
L 42.882107 89.946963 
L 44.530664 96.198393 
L 46.179221 101.628956 
L 47.827778 106.321202 
L 49.476335 110.363263 
L 51.124892 113.842754 
L 52.773449 116.842718 
L 54.422007 119.438836 
L 56.070564 121.698174 
L 58.26864 124.287713 
L 60.466716 126.505836 
L 63.214311 128.922269 
L 67.060944 131.949639 
L 72.006616 135.570721 
L 75.853249 138.115775 
L 78.600844 139.682776 
L 81.348439 140.984773 
L 84.096035 142.020048 
L 87.942668 143.170191 
L 92.33882 144.523384 
L 95.635934 145.811172 
L 104.428239 149.505845 
L 107.175834 150.356278 
L 109.923429 150.997516 
L 113.220544 151.532054 
L 121.463329 152.712927 
L 124.210924 153.392353 
L 127.508039 154.432644 
L 136.300343 157.355409 
L 140.146976 158.344195 
L 144.543129 159.227174 
L 148.389762 159.781536 
L 152.236395 160.106819 
L 162.127738 160.735553 
L 165.424852 161.306645 
L 171.469562 162.690888 
L 175.316195 163.435825 
L 178.613309 163.847015 
L 182.459942 164.081713 
L 189.054171 164.195231 
L 196.747437 164.410619 
L 204.440704 164.872639 
L 215.431085 165.578479 
L 223.124351 165.745605 
L 245.654632 165.998457 
L 292.36375 166 
L 292.36375 166 
" clip-path="url(#pa4449de670)" style="fill: none; stroke: #b5443b; stroke-width: 1.2; stroke-linecap: square"/>
   </g>
   <g id="patch_3">
    <path d="M 18.15375 166 
L 18.15375 7.2 
" style="fill: none; stroke: #000000; stroke-width: 0.8; stroke-linejoin: miter; stroke-linecap: square"/>
   </g>
   <g id="patch_4">
    <path d="M 292.36375 166 
L 292.36375 7.2 
" style="fill: none; stroke: #000000; stroke-width: 0.8; stroke-linejoin: miter; stroke-linecap: square"/>
   </g>
   <g id="patch_5">
    <path d="M 18.15375 166 
L 292.36375 166 
" style="fill: none; stroke: #000000; stroke-width: 0.8; stroke-linejoin: miter; stroke-linecap: square"/>
   </g>
   <g id="patch_6">
    <path d="M 18.15375 7.2 
L 292.36375 7.2 
" style="fill: none; stroke: #000000; stroke-width: 0.8; stroke-linejoin: miter; stroke-linecap: square"/>
   </g>
  </g>
 </g>
 <defs>
  <clipPath id="pa4449de670">
   <rect x="18.15375" y="7.2" width="274.21" height="158.8"/>
  </clipPath>
 </defs>
</svg>
